<svg width="45" height="45" viewBox="0 0 45 45" fill="none" xmlns="http://www.w3.org/2000/svg">
<path d="M17.4855 31.2899L26.6617 22.359L17.7322 13.18L19.7043 11.2626L30.5526 22.4123L19.403 33.2606L17.4855 31.2899Z" fill="white"/>
<path d="M22.5671 3.05106C11.9531 2.90567 3.20062 11.4216 3.05522 22.0356C2.90982 32.6496 11.4257 41.4021 22.0397 41.5475C32.6537 41.6929 41.4062 33.1769 41.5516 22.5629C41.697 11.9489 33.1811 3.19646 22.5671 3.05106ZM22.0774 38.7977C12.9799 38.6731 5.68034 31.1708 5.80496 22.0733C5.92958 12.9757 13.4319 5.67618 22.5294 5.80081C31.6269 5.92543 38.9265 13.4277 38.8019 22.5253C38.6772 31.6228 31.1749 38.9223 22.0774 38.7977Z" fill="white"/>
</svg>
