<svg width="45" height="45" viewBox="0 0 45 45" fill="none" xmlns="http://www.w3.org/2000/svg">
<path d="M27.5144 31.2899L18.3383 22.359L27.2677 13.18L25.2957 11.2626L14.4474 22.4123L25.597 33.2606L27.5144 31.2899Z" fill="white"/>
<path d="M22.4329 3.05106C33.0469 2.90567 41.7994 11.4216 41.9448 22.0356C42.0902 32.6496 33.5743 41.4021 22.9603 41.5475C12.3463 41.6929 3.5938 33.1769 3.4484 22.5629C3.303 11.9489 11.8189 3.19646 22.4329 3.05106ZM22.9226 38.7977C32.0201 38.6731 39.3197 31.1708 39.195 22.0733C39.0704 12.9757 31.5681 5.67618 22.4706 5.80081C13.3731 5.92543 6.07352 13.4277 6.19814 22.5253C6.32277 31.6228 13.8251 38.9223 22.9226 38.7977Z" fill="white"/>
</svg>
