<svg width="121" height="33" viewBox="0 0 121 33" fill="none" xmlns="http://www.w3.org/2000/svg">
<path d="M11.08 24L6.28 15.66H3.67V24H0.25V3.15H7.45C9.05 3.15 10.4 3.43 11.5 3.99C12.62 4.55 13.45 5.3 13.99 6.24C14.55 7.18 14.83 8.23 14.83 9.39C14.83 10.75 14.43 11.99 13.63 13.11C12.85 14.21 11.64 14.96 10 15.36L15.16 24H11.08ZM3.67 12.93H7.45C8.73 12.93 9.69 12.61 10.33 11.97C10.99 11.33 11.32 10.47 11.32 9.39C11.32 8.31 11 7.47 10.36 6.87C9.72 6.25 8.75 5.94 7.45 5.94H3.67V12.93ZM34.3551 15.33C34.3551 15.95 34.3151 16.51 34.2351 17.01H21.6051C21.7051 18.33 22.1951 19.39 23.0751 20.19C23.9551 20.99 25.0351 21.39 26.3151 21.39C28.1551 21.39 29.4551 20.62 30.2151 19.08H33.9051C33.4051 20.6 32.4951 21.85 31.1751 22.83C29.8751 23.79 28.2551 24.27 26.3151 24.27C24.7351 24.27 23.3151 23.92 22.0551 23.22C20.8151 22.5 19.8351 21.5 19.1151 20.22C18.4151 18.92 18.0651 17.42 18.0651 15.72C18.0651 14.02 18.4051 12.53 19.0851 11.25C19.7851 9.95 20.7551 8.95 21.9951 8.25C23.2551 7.55 24.6951 7.2 26.3151 7.2C27.8751 7.2 29.2651 7.54 30.4851 8.22C31.7051 8.9 32.6551 9.86 33.3351 11.1C34.0151 12.32 34.3551 13.73 34.3551 15.33ZM30.7851 14.25C30.7651 12.99 30.3151 11.98 29.4351 11.22C28.5551 10.46 27.4651 10.08 26.1651 10.08C24.9851 10.08 23.9751 10.46 23.1351 11.22C22.2951 11.96 21.7951 12.97 21.6351 14.25H30.7851ZM44.3807 7.2C45.6607 7.2 46.7907 7.46 47.7707 7.98C48.7707 8.48 49.5507 9.11 50.1107 9.87V7.47H53.5607V24.27C53.5607 25.79 53.2407 27.14 52.6007 28.32C51.9607 29.52 51.0307 30.46 49.8107 31.14C48.6107 31.82 47.1707 32.16 45.4907 32.16C43.2507 32.16 41.3907 31.63 39.9107 30.57C38.4307 29.53 37.5907 28.11 37.3907 26.31H40.7807C41.0407 27.17 41.5907 27.86 42.4307 28.38C43.2907 28.92 44.3107 29.19 45.4907 29.19C46.8707 29.19 47.9807 28.77 48.8207 27.93C49.6807 27.09 50.1107 25.87 50.1107 24.27V21.51C49.5307 22.29 48.7407 22.95 47.7407 23.49C46.7607 24.01 45.6407 24.27 44.3807 24.27C42.9407 24.27 41.6207 23.91 40.4207 23.19C39.2407 22.45 38.3007 21.43 37.6007 20.13C36.9207 18.81 36.5807 17.32 36.5807 15.66C36.5807 14 36.9207 12.53 37.6007 11.25C38.3007 9.97 39.2407 8.98 40.4207 8.28C41.6207 7.56 42.9407 7.2 44.3807 7.2ZM50.1107 15.72C50.1107 14.58 49.8707 13.59 49.3907 12.75C48.9307 11.91 48.3207 11.27 47.5607 10.83C46.8007 10.39 45.9807 10.17 45.1007 10.17C44.2207 10.17 43.4007 10.39 42.6407 10.83C41.8807 11.25 41.2607 11.88 40.7807 12.72C40.3207 13.54 40.0907 14.52 40.0907 15.66C40.0907 16.8 40.3207 17.8 40.7807 18.66C41.2607 19.52 41.8807 20.18 42.6407 20.64C43.4207 21.08 44.2407 21.3 45.1007 21.3C45.9807 21.3 46.8007 21.08 47.5607 20.64C48.3207 20.2 48.9307 19.56 49.3907 18.72C49.8707 17.86 50.1107 16.86 50.1107 15.72ZM59.7927 5.28C59.1727 5.28 58.6527 5.07 58.2327 4.65C57.8127 4.23 57.6027 3.71 57.6027 3.09C57.6027 2.47 57.8127 1.95 58.2327 1.53C58.6527 1.11 59.1727 0.899999 59.7927 0.899999C60.3927 0.899999 60.9027 1.11 61.3227 1.53C61.7427 1.95 61.9527 2.47 61.9527 3.09C61.9527 3.71 61.7427 4.23 61.3227 4.65C60.9027 5.07 60.3927 5.28 59.7927 5.28ZM61.4727 7.47V24H58.0527V7.47H61.4727ZM71.9629 24.27C70.6629 24.27 69.4929 24.04 68.4529 23.58C67.4329 23.1 66.6229 22.46 66.0229 21.66C65.4229 20.84 65.1029 19.93 65.0629 18.93H68.6029C68.6629 19.63 68.9929 20.22 69.5929 20.7C70.2129 21.16 70.9829 21.39 71.9029 21.39C72.8629 21.39 73.6029 21.21 74.1229 20.85C74.6629 20.47 74.9329 19.99 74.9329 19.41C74.9329 18.79 74.6329 18.33 74.0329 18.03C73.4529 17.73 72.5229 17.4 71.2429 17.04C70.0029 16.7 68.9929 16.37 68.2129 16.05C67.4329 15.73 66.7529 15.24 66.1729 14.58C65.6129 13.92 65.3329 13.05 65.3329 11.97C65.3329 11.09 65.5929 10.29 66.1129 9.57C66.6329 8.83 67.3729 8.25 68.3329 7.83C69.3129 7.41 70.4329 7.2 71.6929 7.2C73.5729 7.2 75.0829 7.68 76.2229 8.64C77.3829 9.58 78.0029 10.87 78.0829 12.51H74.6629C74.6029 11.77 74.3029 11.18 73.7629 10.74C73.2229 10.3 72.4929 10.08 71.5729 10.08C70.6729 10.08 69.9829 10.25 69.5029 10.59C69.0229 10.93 68.7829 11.38 68.7829 11.94C68.7829 12.38 68.9429 12.75 69.2629 13.05C69.5829 13.35 69.9729 13.59 70.4329 13.77C70.8929 13.93 71.5729 14.14 72.4729 14.4C73.6729 14.72 74.6529 15.05 75.4129 15.39C76.1929 15.71 76.8629 16.19 77.4229 16.83C77.9829 17.47 78.2729 18.32 78.2929 19.38C78.2929 20.32 78.0329 21.16 77.5129 21.9C76.9929 22.64 76.2529 23.22 75.2929 23.64C74.3529 24.06 73.2429 24.27 71.9629 24.27ZM85.9783 10.26V19.41C85.9783 20.03 86.1183 20.48 86.3983 20.76C86.6983 21.02 87.1983 21.15 87.8983 21.15H89.9983V24H87.2983C85.7583 24 84.5783 23.64 83.7583 22.92C82.9383 22.2 82.5283 21.03 82.5283 19.41V10.26H80.5783V7.47H82.5283V3.36H85.9783V7.47H89.9983V10.26H85.9783ZM108.3 15.33C108.3 15.95 108.26 16.51 108.18 17.01H95.5504C95.6504 18.33 96.1404 19.39 97.0204 20.19C97.9004 20.99 98.9804 21.39 100.26 21.39C102.1 21.39 103.4 20.62 104.16 19.08H107.85C107.35 20.6 106.44 21.85 105.12 22.83C103.82 23.79 102.2 24.27 100.26 24.27C98.6804 24.27 97.2604 23.92 96.0004 23.22C94.7604 22.5 93.7804 21.5 93.0604 20.22C92.3604 18.92 92.0104 17.42 92.0104 15.72C92.0104 14.02 92.3504 12.53 93.0304 11.25C93.7304 9.95 94.7004 8.95 95.9404 8.25C97.2004 7.55 98.6404 7.2 100.26 7.2C101.82 7.2 103.21 7.54 104.43 8.22C105.65 8.9 106.6 9.86 107.28 11.1C107.96 12.32 108.3 13.73 108.3 15.33ZM104.73 14.25C104.71 12.99 104.26 11.98 103.38 11.22C102.5 10.46 101.41 10.08 100.11 10.08C98.9304 10.08 97.9204 10.46 97.0804 11.22C96.2404 11.96 95.7404 12.97 95.5804 14.25H104.73ZM115.086 9.87C115.586 9.03 116.246 8.38 117.066 7.92C117.906 7.44 118.896 7.2 120.036 7.2V10.74H119.166C117.826 10.74 116.806 11.08 116.106 11.76C115.426 12.44 115.086 13.62 115.086 15.3V24H111.666V7.47H115.086V9.87Z" fill="white"/>
</svg>
