<svg width="86" height="24" viewBox="0 0 86 24" fill="none" xmlns="http://www.w3.org/2000/svg">
<path d="M15.36 13.3877H9.3V19.5977H6.12V13.3877H0.0600002V10.5077H6.12V4.29771H9.3V10.5077H15.36V13.3877ZM41.029 18.5177H32.299L30.799 22.7777H27.229L34.699 1.89771H38.659L46.129 22.7777H42.529L41.029 18.5177ZM40.069 15.7277L36.679 6.03771L33.259 15.7277H40.069ZM48.237 14.4377C48.237 12.7777 48.577 11.3077 49.257 10.0277C49.957 8.74771 50.897 7.75771 52.077 7.05771C53.277 6.33771 54.607 5.97771 56.067 5.97771C57.147 5.97771 58.207 6.21771 59.247 6.69771C60.307 7.15771 61.147 7.77771 61.767 8.55771V0.57771H65.217V22.7777H61.767V20.2877C61.207 21.0877 60.427 21.7477 59.427 22.2677C58.447 22.7877 57.317 23.0477 56.037 23.0477C54.597 23.0477 53.277 22.6877 52.077 21.9677C50.897 21.2277 49.957 20.2077 49.257 18.9077C48.577 17.5877 48.237 16.0977 48.237 14.4377ZM61.767 14.4977C61.767 13.3577 61.527 12.3677 61.047 11.5277C60.587 10.6877 59.977 10.0477 59.217 9.60771C58.457 9.16771 57.637 8.94771 56.757 8.94771C55.877 8.94771 55.057 9.16771 54.297 9.60771C53.537 10.0277 52.917 10.6577 52.437 11.4977C51.977 12.3177 51.747 13.2977 51.747 14.4377C51.747 15.5777 51.977 16.5777 52.437 17.4377C52.917 18.2977 53.537 18.9577 54.297 19.4177C55.077 19.8577 55.897 20.0777 56.757 20.0777C57.637 20.0777 58.457 19.8577 59.217 19.4177C59.977 18.9777 60.587 18.3377 61.047 17.4977C61.527 16.6377 61.767 15.6377 61.767 14.4977ZM68.569 14.4377C68.569 12.7777 68.909 11.3077 69.589 10.0277C70.289 8.74771 71.229 7.75771 72.409 7.05771C73.609 6.33771 74.939 5.97771 76.399 5.97771C77.479 5.97771 78.539 6.21771 79.579 6.69771C80.639 7.15771 81.479 7.77771 82.099 8.55771V0.57771H85.549V22.7777H82.099V20.2877C81.539 21.0877 80.759 21.7477 79.759 22.2677C78.779 22.7877 77.649 23.0477 76.369 23.0477C74.929 23.0477 73.609 22.6877 72.409 21.9677C71.229 21.2277 70.289 20.2077 69.589 18.9077C68.909 17.5877 68.569 16.0977 68.569 14.4377ZM82.099 14.4977C82.099 13.3577 81.859 12.3677 81.379 11.5277C80.919 10.6877 80.309 10.0477 79.549 9.60771C78.789 9.16771 77.969 8.94771 77.089 8.94771C76.209 8.94771 75.389 9.16771 74.629 9.60771C73.869 10.0277 73.249 10.6577 72.769 11.4977C72.309 12.3177 72.079 13.2977 72.079 14.4377C72.079 15.5777 72.309 16.5777 72.769 17.4377C73.249 18.2977 73.869 18.9577 74.629 19.4177C75.409 19.8577 76.229 20.0777 77.089 20.0777C77.969 20.0777 78.789 19.8577 79.549 19.4177C80.309 18.9777 80.919 18.3377 81.379 17.4977C81.859 16.6377 82.099 15.6377 82.099 14.4977Z" fill="white"/>
</svg>
