<svg width="177" height="25" viewBox="0 0 177 25" fill="none" xmlns="http://www.w3.org/2000/svg">
<path d="M15.36 14.61H9.3V20.82H6.12V14.61H0.0600002V11.73H6.12V5.52H9.3V11.73H15.36V14.61ZM27.319 13.53C27.319 11.49 27.789 9.66 28.729 8.04C29.689 6.42 30.979 5.16 32.599 4.26C34.239 3.34 36.029 2.88 37.969 2.88C40.189 2.88 42.159 3.43 43.879 4.53C45.619 5.61 46.879 7.15 47.659 9.15H43.549C43.009 8.05 42.259 7.23 41.299 6.69C40.339 6.15 39.229 5.88 37.969 5.88C36.589 5.88 35.359 6.19 34.279 6.81C33.199 7.43 32.349 8.32 31.729 9.48C31.129 10.64 30.829 11.99 30.829 13.53C30.829 15.07 31.129 16.42 31.729 17.58C32.349 18.74 33.199 19.64 34.279 20.28C35.359 20.9 36.589 21.21 37.969 21.21C39.229 21.21 40.339 20.94 41.299 20.4C42.259 19.86 43.009 19.04 43.549 17.94H47.659C46.879 19.94 45.619 21.48 43.879 22.56C42.159 23.64 40.189 24.18 37.969 24.18C36.009 24.18 34.219 23.73 32.599 22.83C30.979 21.91 29.689 20.64 28.729 19.02C27.789 17.4 27.319 15.57 27.319 13.53ZM58.8321 24.27C57.2721 24.27 55.8621 23.92 54.6021 23.22C53.3421 22.5 52.3521 21.5 51.6321 20.22C50.9121 18.92 50.5521 17.42 50.5521 15.72C50.5521 14.04 50.9221 12.55 51.6621 11.25C52.4021 9.95 53.4121 8.95 54.6921 8.25C55.9721 7.55 57.4021 7.2 58.9821 7.2C60.5621 7.2 61.9921 7.55 63.2721 8.25C64.5521 8.95 65.5621 9.95 66.3021 11.25C67.0421 12.55 67.4121 14.04 67.4121 15.72C67.4121 17.4 67.0321 18.89 66.2721 20.19C65.5121 21.49 64.4721 22.5 63.1521 23.22C61.8521 23.92 60.4121 24.27 58.8321 24.27ZM58.8321 21.3C59.7121 21.3 60.5321 21.09 61.2921 20.67C62.0721 20.25 62.7021 19.62 63.1821 18.78C63.6621 17.94 63.9021 16.92 63.9021 15.72C63.9021 14.52 63.6721 13.51 63.2121 12.69C62.7521 11.85 62.1421 11.22 61.3821 10.8C60.6221 10.38 59.8021 10.17 58.9221 10.17C58.0421 10.17 57.2221 10.38 56.4621 10.8C55.7221 11.22 55.1321 11.85 54.6921 12.69C54.2521 13.51 54.0321 14.52 54.0321 15.72C54.0321 17.5 54.4821 18.88 55.3821 19.86C56.3021 20.82 57.4521 21.3 58.8321 21.3ZM74.213 1.8V24H70.793V1.8H74.213ZM82.1231 1.8V24H78.7031V1.8H82.1231ZM101.763 15.33C101.763 15.95 101.723 16.51 101.643 17.01H89.0133C89.1133 18.33 89.6033 19.39 90.4833 20.19C91.3633 20.99 92.4433 21.39 93.7233 21.39C95.5633 21.39 96.8633 20.62 97.6233 19.08H101.313C100.813 20.6 99.9033 21.85 98.5833 22.83C97.2833 23.79 95.6633 24.27 93.7233 24.27C92.1433 24.27 90.7233 23.92 89.4633 23.22C88.2233 22.5 87.2433 21.5 86.5233 20.22C85.8233 18.92 85.4733 17.42 85.4733 15.72C85.4733 14.02 85.8133 12.53 86.4933 11.25C87.1933 9.95 88.1633 8.95 89.4033 8.25C90.6633 7.55 92.1033 7.2 93.7233 7.2C95.2833 7.2 96.6733 7.54 97.8933 8.22C99.1133 8.9 100.063 9.86 100.743 11.1C101.423 12.32 101.763 13.73 101.763 15.33ZM98.1933 14.25C98.1733 12.99 97.7233 11.98 96.8433 11.22C95.9633 10.46 94.8733 10.08 93.5733 10.08C92.3933 10.08 91.3833 10.46 90.5433 11.22C89.7033 11.96 89.2033 12.97 89.0433 14.25H98.1933ZM103.989 15.72C103.989 14.02 104.329 12.53 105.009 11.25C105.709 9.95 106.669 8.95 107.889 8.25C109.109 7.55 110.509 7.2 112.089 7.2C114.089 7.2 115.739 7.68 117.039 8.64C118.359 9.58 119.249 10.93 119.709 12.69H116.019C115.719 11.87 115.239 11.23 114.579 10.77C113.919 10.31 113.089 10.08 112.089 10.08C110.689 10.08 109.569 10.58 108.729 11.58C107.909 12.56 107.499 13.94 107.499 15.72C107.499 17.5 107.909 18.89 108.729 19.89C109.569 20.89 110.689 21.39 112.089 21.39C114.069 21.39 115.379 20.52 116.019 18.78H119.709C119.229 20.46 118.329 21.8 117.009 22.8C115.689 23.78 114.049 24.27 112.089 24.27C110.509 24.27 109.109 23.92 107.889 23.22C106.669 22.5 105.709 21.5 105.009 20.22C104.329 18.92 103.989 17.42 103.989 15.72ZM127.107 10.26V19.41C127.107 20.03 127.247 20.48 127.527 20.76C127.827 21.02 128.327 21.15 129.027 21.15H131.127V24H128.427C126.887 24 125.707 23.64 124.887 22.92C124.067 22.2 123.657 21.03 123.657 19.41V10.26H121.707V7.47H123.657V3.36H127.107V7.47H131.127V10.26H127.107ZM136.019 5.28C135.399 5.28 134.879 5.07 134.459 4.65C134.039 4.23 133.829 3.71 133.829 3.09C133.829 2.47 134.039 1.95 134.459 1.53C134.879 1.11 135.399 0.899999 136.019 0.899999C136.619 0.899999 137.129 1.11 137.549 1.53C137.969 1.95 138.179 2.47 138.179 3.09C138.179 3.71 137.969 4.23 137.549 4.65C137.129 5.07 136.619 5.28 136.019 5.28ZM137.699 7.47V24H134.279V7.47H137.699ZM149.359 24.27C147.799 24.27 146.389 23.92 145.129 23.22C143.869 22.5 142.879 21.5 142.159 20.22C141.439 18.92 141.079 17.42 141.079 15.72C141.079 14.04 141.449 12.55 142.189 11.25C142.929 9.95 143.939 8.95 145.219 8.25C146.499 7.55 147.929 7.2 149.509 7.2C151.089 7.2 152.519 7.55 153.799 8.25C155.079 8.95 156.089 9.95 156.829 11.25C157.569 12.55 157.939 14.04 157.939 15.72C157.939 17.4 157.559 18.89 156.799 20.19C156.039 21.49 154.999 22.5 153.679 23.22C152.379 23.92 150.939 24.27 149.359 24.27ZM149.359 21.3C150.239 21.3 151.059 21.09 151.819 20.67C152.599 20.25 153.229 19.62 153.709 18.78C154.189 17.94 154.429 16.92 154.429 15.72C154.429 14.52 154.199 13.51 153.739 12.69C153.279 11.85 152.669 11.22 151.909 10.8C151.149 10.38 150.329 10.17 149.449 10.17C148.569 10.17 147.749 10.38 146.989 10.8C146.249 11.22 145.659 11.85 145.219 12.69C144.779 13.51 144.559 14.52 144.559 15.72C144.559 17.5 145.009 18.88 145.909 19.86C146.829 20.82 147.979 21.3 149.359 21.3ZM169.66 7.2C170.96 7.2 172.12 7.47 173.14 8.01C174.18 8.55 174.99 9.35 175.57 10.41C176.15 11.47 176.44 12.75 176.44 14.25V24H173.05V14.76C173.05 13.28 172.68 12.15 171.94 11.37C171.2 10.57 170.19 10.17 168.91 10.17C167.63 10.17 166.61 10.57 165.85 11.37C165.11 12.15 164.74 13.28 164.74 14.76V24H161.32V7.47H164.74V9.36C165.3 8.68 166.01 8.15 166.87 7.77C167.75 7.39 168.68 7.2 169.66 7.2Z" fill="white"/>
</svg>
