<svg width="50" height="50" viewBox="0 0 50 50" fill="none" xmlns="http://www.w3.org/2000/svg">
<g clip-path="url(#clip0_191_3898)">
<path fill-rule="evenodd" clip-rule="evenodd" d="M25 4.16666C36.5062 4.16666 45.8333 13.4937 45.8333 25C45.8407 29.8081 44.1779 34.4695 41.1292 38.1875L41.1708 38.2333L40.8958 38.4667C38.9421 40.7775 36.5075 42.634 33.7619 43.9064C31.0163 45.1788 28.0261 45.8364 25 45.8333C18.8541 45.8333 13.3333 43.1729 9.52082 38.9437L9.10415 38.4646L8.82915 38.2354L8.87081 38.1854C5.82239 34.4681 4.15961 29.8074 4.16665 25C4.16665 13.4937 13.4937 4.16666 25 4.16666ZM25 35.4167C21.125 35.4167 17.6229 36.65 15.0146 38.3458C17.8946 40.5068 21.3994 41.6724 25 41.6667C28.6006 41.6724 32.1054 40.5068 34.9854 38.3458C32.0049 36.436 28.5399 35.4195 25 35.4167ZM25 8.33332C21.8636 8.33323 18.7908 9.21815 16.1348 10.8863C13.4788 12.5545 11.3475 14.9383 9.98573 17.7637C8.62397 20.589 8.08707 23.7413 8.43675 26.8582C8.78643 29.975 10.0085 32.93 11.9625 35.3833C15.3396 32.9604 19.9479 31.25 25 31.25C30.0521 31.25 34.6604 32.9604 38.0375 35.3833C39.9915 32.93 41.2135 29.975 41.5632 26.8582C41.9129 23.7413 41.376 20.589 40.0142 17.7637C38.6525 14.9383 36.5211 12.5545 33.8651 10.8863C31.2092 9.21815 28.1364 8.33323 25 8.33332ZM25 12.5C27.2101 12.5 29.3297 13.378 30.8925 14.9408C32.4553 16.5036 33.3333 18.6232 33.3333 20.8333C33.3333 23.0435 32.4553 25.1631 30.8925 26.7259C29.3297 28.2887 27.2101 29.1667 25 29.1667C22.7898 29.1667 20.6702 28.2887 19.1074 26.7259C17.5446 25.1631 16.6666 23.0435 16.6666 20.8333C16.6666 18.6232 17.5446 16.5036 19.1074 14.9408C20.6702 13.378 22.7898 12.5 25 12.5ZM25 16.6667C23.8949 16.6667 22.8351 17.1056 22.0537 17.887C21.2723 18.6684 20.8333 19.7283 20.8333 20.8333C20.8333 21.9384 21.2723 22.9982 22.0537 23.7796C22.8351 24.561 23.8949 25 25 25C26.105 25 27.1649 24.561 27.9463 23.7796C28.7277 22.9982 29.1666 21.9384 29.1666 20.8333C29.1666 19.7283 28.7277 18.6684 27.9463 17.887C27.1649 17.1056 26.105 16.6667 25 16.6667Z" fill="url(#paint0_linear_191_3898)"/>
</g>
<defs>
<linearGradient id="paint0_linear_191_3898" x1="25" y1="4.16666" x2="25" y2="45.8333" gradientUnits="userSpaceOnUse">
<stop stop-color="#372948"/>
</linearGradient>
<clipPath id="clip0_191_3898">
<rect width="50" height="50" fill="white"/>
</clipPath>
</defs>
</svg>
