<svg width="60" height="60" viewBox="0 0 60 60" fill="none" xmlns="http://www.w3.org/2000/svg">
<path d="M13.7625 26.2537C18.35 26.2063 20.9087 26.6688 25.7775 28.6575L26.7225 26.3425C21.5637 24.2362 18.675 23.7025 13.7375 23.7538L13.7625 26.2537ZM25.7775 33.6575C20.9087 31.67 18.35 31.2063 13.7625 31.2537L13.7375 28.7537C18.675 28.7025 21.5625 29.2362 26.7225 31.3425L25.7775 33.6575ZM13.7625 36.2537C18.35 36.2063 20.9087 36.6688 25.7775 38.6575L26.7225 36.3425C21.5637 34.2362 18.675 33.7025 13.7375 33.7537L13.7625 36.2537ZM46.2375 36.2537C41.65 36.2063 39.0912 36.6688 34.2225 38.6575L33.2775 36.3425C38.4362 34.2362 41.325 33.7025 46.2625 33.7537L46.2375 36.2537ZM34.2225 33.6575C39.0912 31.67 41.6512 31.2063 46.2375 31.2537L46.2625 28.7537C41.325 28.7025 38.4375 29.2362 33.2775 31.3425L34.2225 33.6575ZM46.2375 26.2537C41.65 26.2063 39.0912 26.6688 34.2225 28.6575L33.2775 26.3425C38.4362 24.2362 41.325 23.7025 46.2625 23.7538L46.2375 26.2537ZM16.875 20V16.25H14.375V20H16.875ZM21.25 17.5V21.25H18.75V17.5H21.25ZM25.625 22.5V18.75H23.125V22.5H25.625ZM43.125 20V16.25H45.625V20H43.125ZM38.75 17.5V21.25H41.25V17.5H38.75ZM34.375 22.5V18.75H36.875V22.5H34.375Z" fill="white"/>
<path fill-rule="evenodd" clip-rule="evenodd" d="M30 14.05L30.3225 13.9813C36.5675 10.9738 41.9488 8.81126 49.4075 10.7213C49.9369 10.859 50.4053 11.169 50.7389 11.6024C51.0725 12.0359 51.2524 12.568 51.25 13.115V13.4663C52.15 13.6475 53.0825 13.8538 54.0538 14.0888C54.324 14.1544 54.5643 14.3091 54.7359 14.5279C54.9075 14.7467 55.0006 15.0169 55 15.295V47.2188C55 48.01 54.2713 48.6 53.495 48.4525C45.7288 46.9713 40.495 46.8675 33.3425 47.9525C33.0288 48.5694 32.5505 49.0873 31.9605 49.4492C31.3706 49.811 30.692 50.0024 30 50.0024C29.308 50.0024 28.6294 49.811 28.0395 49.4492C27.4496 49.0873 26.9712 48.5694 26.6575 47.9525C19.5063 46.8675 14.27 46.9713 6.505 48.4525C6.32258 48.488 6.13458 48.4828 5.9544 48.4373C5.77421 48.3918 5.60627 48.3072 5.46255 48.1893C5.31883 48.0715 5.20287 47.9235 5.12292 47.7557C5.04297 47.5879 5.001 47.4046 5 47.2188V15.295C4.99922 15.0169 5.09216 14.7466 5.26384 14.5277C5.43551 14.3089 5.67592 14.1542 5.94625 14.0888C6.87676 13.8633 7.81152 13.6558 8.75001 13.4663V13.115C8.75001 12.015 9.47875 11.0063 10.5925 10.7213C18.0513 8.81126 23.4325 10.9738 29.6775 13.9813L30 14.05ZM31.25 16.3088C37.475 13.3038 42.1675 11.4588 48.75 13.1338V41.3188C48.75 41.3188 48.7463 41.325 48.74 41.3288C48.731 41.336 48.7205 41.3412 48.7093 41.344C48.6981 41.3468 48.6864 41.3472 48.675 41.345C42.55 40.2225 37.8238 41.3913 32.6813 43.6275C32.2803 43.2175 31.7907 42.9049 31.25 42.7138V16.3088ZM28.75 16.31V42.7138C28.2093 42.9049 27.7197 43.2175 27.3188 43.6275C22.1763 41.39 17.4488 40.2225 11.325 41.345C11.3134 41.3474 11.3015 41.3471 11.2901 41.3443C11.2786 41.3415 11.2679 41.3362 11.2588 41.3288H11.2575L11.25 41.3175V13.1338C17.8325 11.4588 22.525 13.305 28.75 16.31ZM52.5 16.2913C52.075 16.195 51.6588 16.1038 51.25 16.0188V41.3188C51.25 42.9563 49.7375 44.0813 48.2238 43.805C43.5038 42.9388 39.7238 43.5638 35.6325 45.12C41.3488 44.4538 46.1675 44.6175 52.5 45.7288V16.2913ZM24.3675 45.12C20.2775 43.5638 16.4963 42.9388 11.7763 43.805C10.2638 44.0825 8.75001 42.9563 8.75001 41.3188V16.0188C8.34126 16.1038 7.925 16.1938 7.50001 16.2913V45.7288C13.8325 44.6175 18.65 44.4538 24.3675 45.12Z" fill="white"/>
</svg>
