<svg width="50" height="50" viewBox="0 0 50 50" fill="none" xmlns="http://www.w3.org/2000/svg">
<path d="M10.4167 22.9166H27.0833V27.0833H10.4167V33.3333L0 25L10.4167 16.6666V22.9166ZM8.33333 37.5H13.975C16.3806 39.6215 19.3473 41.0038 22.519 41.4811C25.6908 41.9584 28.9329 41.5103 31.8563 40.1906C34.7797 38.8709 37.2602 36.7357 39.0001 34.0412C40.7401 31.3468 41.6656 28.2074 41.6656 25C41.6656 21.7925 40.7401 18.6532 39.0001 15.9587C37.2602 13.2642 34.7797 11.129 31.8563 9.80933C28.9329 8.48967 25.6908 8.04158 22.519 8.51884C19.3473 8.9961 16.3806 10.3784 13.975 12.5H8.33333C10.2722 9.91075 12.7882 7.80936 15.6814 6.36276C18.5746 4.91616 21.7653 4.1642 25 4.16663C36.5062 4.16663 45.8333 13.4937 45.8333 25C45.8333 36.5062 36.5062 45.8333 25 45.8333C21.7653 45.8357 18.5746 45.0838 15.6814 43.6372C12.7882 42.1906 10.2722 40.0892 8.33333 37.5Z" fill="white"/>
</svg>
