<svg width="50" height="50" viewBox="0 0 50 50" fill="none" xmlns="http://www.w3.org/2000/svg">
<g clip-path="url(#clip0_385_4)">
<path d="M6.24996 17.4167V15.3333C5.69743 15.3333 5.16752 15.5528 4.77682 15.9435C4.38612 16.3342 4.16663 16.8641 4.16663 17.4167H6.24996ZM43.75 17.4167H45.8333C45.8333 16.8641 45.6138 16.3342 45.2231 15.9435C44.8324 15.5528 44.3025 15.3333 43.75 15.3333V17.4167ZM6.24996 19.5H43.75V15.3333H6.24996V19.5ZM41.6666 17.4167V42.4167H45.8333V17.4167H41.6666ZM39.5833 44.5H10.4166V48.6667H39.5833V44.5ZM8.33329 42.4167V17.4167H4.16663V42.4167H8.33329ZM10.4166 44.5C9.86409 44.5 9.33419 44.2805 8.94349 43.8898C8.55279 43.4991 8.33329 42.9692 8.33329 42.4167H4.16663C4.16663 44.0743 4.82511 45.664 5.99721 46.8361C7.16931 48.0082 8.75902 48.6667 10.4166 48.6667V44.5ZM41.6666 42.4167C41.6666 42.9692 41.4471 43.4991 41.0564 43.8898C40.6657 44.2805 40.1358 44.5 39.5833 44.5V48.6667C41.2409 48.6667 42.8306 48.0082 44.0027 46.8361C45.1748 45.664 45.8333 44.0743 45.8333 42.4167H41.6666Z" fill="#372948"/>
<path d="M6.25 17.4167L25 36.1667L43.75 17.4167" stroke="#372948" stroke-width="2" stroke-linecap="round" stroke-linejoin="round"/>
</g>
<defs>
<clipPath id="clip0_385_4">
<rect width="50" height="50" fill="white"/>
</clipPath>
</defs>
</svg>
