<svg width="16" height="20" viewBox="0 0 16 20" fill="none" xmlns="http://www.w3.org/2000/svg">
<path d="M6.43553 16.4286H16V17.8571H6.43553V16.4286ZM1.76943 17.1429L0.00683192 18.9857L0.970111 20L3.70282 17.1429L0.970111 14.2857L0 15.2929L1.76943 17.1429ZM6.43553 9.28571H16V10.7143H6.43553V9.28571ZM1.76943 10L0.00683192 11.8429L0.970111 12.8571L3.70282 10L0.970111 7.14286L0 8.15L1.76943 10ZM6.43553 2.14286H16V3.57143H6.43553V2.14286ZM1.76943 2.85714L0.00683192 4.7L0.970111 5.71429L3.70282 2.85714L0.970111 0L0 1.00714L1.76943 2.85714Z" fill="black"/>
</svg>
