<svg width="170" height="36" viewBox="0 0 170 36" fill="none" xmlns="http://www.w3.org/2000/svg">
<path d="M0.366438 1.4H8.43044C11.0544 1.4 13.0224 2.104 14.3344 3.512C15.6464 4.92 16.3024 6.984 16.3024 9.704V26.696C16.3024 29.416 15.6464 31.48 14.3344 32.888C13.0224 34.296 11.0544 35 8.43044 35H0.366438V1.4ZM8.33444 30.2C9.19844 30.2 9.85444 29.944 10.3024 29.432C10.7824 28.92 11.0224 28.088 11.0224 26.936V9.464C11.0224 8.312 10.7824 7.48 10.3024 6.968C9.85444 6.456 9.19844 6.2 8.33444 6.2H5.64644V30.2H8.33444ZM23.8527 1.4H31.0047L36.4767 35H31.1967L30.2367 28.328V28.424H24.2367L23.2767 35H18.3807L23.8527 1.4ZM29.6127 23.864L27.2607 7.256H27.1647L24.8607 23.864H29.6127ZM45.7617 35.48C43.2017 35.48 41.2657 34.76 39.9537 33.32C38.6417 31.848 37.9857 29.752 37.9857 27.032V25.112H42.9777V27.416C42.9777 29.592 43.8897 30.68 45.7137 30.68C46.6097 30.68 47.2817 30.424 47.7297 29.912C48.2097 29.368 48.4497 28.504 48.4497 27.32C48.4497 25.912 48.1297 24.68 47.4897 23.624C46.8497 22.536 45.6657 21.24 43.9377 19.736C41.7617 17.816 40.2417 16.088 39.3777 14.552C38.5137 12.984 38.0817 11.224 38.0817 9.272C38.0817 6.616 38.7537 4.568 40.0977 3.128C41.4417 1.656 43.3937 0.919998 45.9537 0.919998C48.4817 0.919998 50.3857 1.656 51.6657 3.128C52.9777 4.568 53.6337 6.648 53.6337 9.368V10.76H48.6417V9.032C48.6417 7.88 48.4177 7.048 47.9697 6.536C47.5217 5.992 46.8657 5.72 46.0017 5.72C44.2417 5.72 43.3617 6.792 43.3617 8.936C43.3617 10.152 43.6817 11.288 44.3217 12.344C44.9937 13.4 46.1937 14.68 47.9217 16.184C50.1297 18.104 51.6497 19.848 52.4817 21.416C53.3137 22.984 53.7297 24.824 53.7297 26.936C53.7297 29.688 53.0417 31.8 51.6657 33.272C50.3217 34.744 48.3537 35.48 45.7617 35.48ZM56.7571 1.4H62.0371V15.08H67.7011V1.4H72.9811V35H67.7011V19.88H62.0371V35H56.7571V1.4ZM76.9133 1.4H84.8813C87.6013 1.4 89.5853 2.04 90.8333 3.32C92.0813 4.568 92.7053 6.504 92.7053 9.128V10.472C92.7053 12.2 92.4173 13.608 91.8413 14.696C91.2973 15.784 90.4493 16.568 89.2973 17.048V17.144C91.9213 18.04 93.2333 20.376 93.2333 24.152V27.032C93.2333 29.624 92.5453 31.608 91.1693 32.984C89.8253 34.328 87.8413 35 85.2173 35H76.9133V1.4ZM84.2573 15.08C85.3133 15.08 86.0973 14.808 86.6093 14.264C87.1533 13.72 87.4253 12.808 87.4253 11.528V9.656C87.4253 8.44 87.2013 7.56 86.7533 7.016C86.3373 6.472 85.6653 6.2 84.7373 6.2H82.1933V15.08H84.2573ZM85.2173 30.2C86.1453 30.2 86.8333 29.96 87.2813 29.48C87.7293 28.968 87.9533 28.104 87.9533 26.888V23.96C87.9533 22.424 87.6813 21.368 87.1373 20.792C86.6253 20.184 85.7613 19.88 84.5453 19.88H82.1933V30.2H85.2173ZM103.952 35.48C101.36 35.48 99.3756 34.744 97.9996 33.272C96.6236 31.8 95.9356 29.72 95.9356 27.032V9.368C95.9356 6.68 96.6236 4.6 97.9996 3.128C99.3756 1.656 101.36 0.919998 103.952 0.919998C106.544 0.919998 108.528 1.656 109.904 3.128C111.28 4.6 111.968 6.68 111.968 9.368V27.032C111.968 29.72 111.28 31.8 109.904 33.272C108.528 34.744 106.544 35.48 103.952 35.48ZM103.952 30.68C105.776 30.68 106.688 29.576 106.688 27.368V9.032C106.688 6.824 105.776 5.72 103.952 5.72C102.128 5.72 101.216 6.824 101.216 9.032V27.368C101.216 29.576 102.128 30.68 103.952 30.68ZM119.525 1.4H126.677L132.149 35H126.869L125.909 28.328V28.424H119.909L118.949 35H114.053L119.525 1.4ZM125.285 23.864L122.933 7.256H122.837L120.533 23.864H125.285ZM134.71 1.4H142.534C145.254 1.4 147.238 2.04 148.486 3.32C149.734 4.568 150.358 6.504 150.358 9.128V11.192C150.358 14.68 149.206 16.888 146.902 17.816V17.912C148.182 18.296 149.078 19.08 149.59 20.264C150.134 21.448 150.406 23.032 150.406 25.016V30.92C150.406 31.88 150.438 32.664 150.502 33.272C150.566 33.848 150.726 34.424 150.982 35H145.606C145.414 34.456 145.286 33.944 145.222 33.464C145.158 32.984 145.126 32.12 145.126 30.872V24.728C145.126 23.192 144.87 22.12 144.358 21.512C143.878 20.904 143.03 20.6 141.814 20.6H139.99V35H134.71V1.4ZM141.91 15.8C142.966 15.8 143.75 15.528 144.262 14.984C144.806 14.44 145.078 13.528 145.078 12.248V9.656C145.078 8.44 144.854 7.56 144.406 7.016C143.99 6.472 143.318 6.2 142.39 6.2H139.99V15.8H141.91ZM154.07 1.4H162.134C164.758 1.4 166.726 2.104 168.038 3.512C169.35 4.92 170.006 6.984 170.006 9.704V26.696C170.006 29.416 169.35 31.48 168.038 32.888C166.726 34.296 164.758 35 162.134 35H154.07V1.4ZM162.038 30.2C162.902 30.2 163.558 29.944 164.006 29.432C164.486 28.92 164.726 28.088 164.726 26.936V9.464C164.726 8.312 164.486 7.48 164.006 6.968C163.558 6.456 162.902 6.2 162.038 6.2H159.35V30.2H162.038Z" fill="#372948"/>
</svg>
