<svg width="120" height="45" viewBox="0 0 120 45" fill="none" xmlns="http://www.w3.org/2000/svg">
<path d="M60.2422 12.15V33H56.8222V18.72L50.4622 33H48.0922L41.7022 18.72V33H38.2822V12.15H41.9722L49.2922 28.5L56.5822 12.15H60.2422ZM79.8873 24.33C79.8873 24.95 79.8473 25.51 79.7673 26.01H67.1373C67.2373 27.33 67.7273 28.39 68.6073 29.19C69.4873 29.99 70.5673 30.39 71.8473 30.39C73.6873 30.39 74.9873 29.62 75.7473 28.08H79.4373C78.9373 29.6 78.0273 30.85 76.7073 31.83C75.4073 32.79 73.7873 33.27 71.8473 33.27C70.2673 33.27 68.8473 32.92 67.5873 32.22C66.3473 31.5 65.3673 30.5 64.6473 29.22C63.9473 27.92 63.5973 26.42 63.5973 24.72C63.5973 23.02 63.9373 21.53 64.6173 20.25C65.3173 18.95 66.2873 17.95 67.5273 17.25C68.7873 16.55 70.2273 16.2 71.8473 16.2C73.4073 16.2 74.7973 16.54 76.0173 17.22C77.2373 17.9 78.1873 18.86 78.8673 20.1C79.5473 21.32 79.8873 22.73 79.8873 24.33ZM76.3173 23.25C76.2973 21.99 75.8473 20.98 74.9673 20.22C74.0873 19.46 72.9973 19.08 71.6973 19.08C70.5173 19.08 69.5073 19.46 68.6673 20.22C67.8273 20.96 67.3273 21.97 67.1673 23.25H76.3173ZM91.5929 16.2C92.8929 16.2 94.0529 16.47 95.0729 17.01C96.1129 17.55 96.9229 18.35 97.5029 19.41C98.0829 20.47 98.3729 21.75 98.3729 23.25V33H94.9829V23.76C94.9829 22.28 94.6129 21.15 93.8729 20.37C93.1329 19.57 92.1229 19.17 90.8429 19.17C89.5629 19.17 88.5429 19.57 87.7829 20.37C87.0429 21.15 86.6729 22.28 86.6729 23.76V33H83.2529V16.47H86.6729V18.36C87.2329 17.68 87.9429 17.15 88.8029 16.77C89.6829 16.39 90.6129 16.2 91.5929 16.2ZM117.705 16.47V33H114.285V31.05C113.745 31.73 113.035 32.27 112.155 32.67C111.295 33.05 110.375 33.24 109.395 33.24C108.095 33.24 106.925 32.97 105.885 32.43C104.865 31.89 104.055 31.09 103.455 30.03C102.875 28.97 102.585 27.69 102.585 26.19V16.47H105.975V25.68C105.975 27.16 106.345 28.3 107.085 29.1C107.825 29.88 108.835 30.27 110.115 30.27C111.395 30.27 112.405 29.88 113.145 29.1C113.905 28.3 114.285 27.16 114.285 25.68V16.47H117.705Z" fill="white"/>
<path d="M1.0461 20.4156C0.769807 20.4156 0.504849 20.3058 0.309511 20.1104C0.114172 19.915 0.00445494 19.65 0.00449515 19.3737L0.00570776 11.0418C0.00574797 10.7655 0.115543 10.5005 0.310938 10.3052C0.506333 10.1098 0.771323 10.0001 1.04761 10.0002L9.38164 10.0014C9.65793 10.0014 9.92289 10.1112 10.1182 10.3066C10.3136 10.502 10.4233 10.767 10.4232 11.0433L10.422 19.3752C10.422 19.6515 10.3122 19.9165 10.1168 20.1118C9.9214 20.3071 9.65642 20.4169 9.38013 20.4168L1.0461 20.4156ZM15.6306 20.4177C15.3544 20.4177 15.0894 20.3079 14.8941 20.1125C14.6987 19.9171 14.589 19.6521 14.589 19.3758L14.5903 11.0439C14.5903 10.7676 14.7001 10.5026 14.8955 10.3073C15.0909 10.112 15.3559 10.0022 15.6322 10.0023L23.9641 10.0035C24.2404 10.0035 24.5054 10.1133 24.7007 10.3087C24.896 10.5041 25.0057 10.7691 25.0057 11.0454L25.0045 19.3773C25.0045 19.6536 24.8947 19.9186 24.6993 20.1139C24.5039 20.3093 24.2389 20.419 23.9626 20.4189L15.6306 20.4177ZM1.04397 35.0002C0.767684 35.0001 0.502726 34.8903 0.307388 34.6949C0.11205 34.4995 0.00233234 34.2345 0.00237255 33.9582L0.00358547 25.6242C0.00362568 25.3479 0.11342 25.083 0.308815 24.8876C0.504211 24.6923 0.7692 24.5826 1.04549 24.5826L9.37952 24.5838C9.65581 24.5839 9.92077 24.6937 10.1161 24.8891C10.3114 25.0845 10.4212 25.3494 10.4211 25.6257L10.4199 33.9598C10.4199 34.2361 10.3101 34.501 10.1147 34.6964C9.91928 34.8917 9.65429 35.0014 9.378 35.0014L1.04397 35.0002ZM15.6285 35.0023C15.3522 35.0022 15.0873 34.8924 14.8919 34.697C14.6966 34.5017 14.5869 34.2367 14.5869 33.9604L14.5881 25.6263C14.5882 25.3501 14.698 25.0851 14.8934 24.8898C15.0888 24.6944 15.3537 24.5847 15.63 24.5847L23.962 24.586C24.2383 24.586 24.5032 24.6958 24.6986 24.8912C24.8939 25.0866 25.0036 25.3516 25.0036 25.6279L25.0024 33.9619C25.0023 34.2382 24.8925 34.5031 24.6971 34.6985C24.5017 34.8938 24.2368 35.0035 23.9605 35.0035L15.6285 35.0023Z" fill="white"/>
</svg>
