<svg width="126" height="33" viewBox="0 0 126 33" fill="none" xmlns="http://www.w3.org/2000/svg">
<path d="M0.162871 0.499998H7.49787C10.0479 0.499998 11.9079 1.1 13.0779 2.3C14.2479 3.47 14.8329 5.285 14.8329 7.745V9.68C14.8329 12.95 13.7529 15.02 11.5929 15.89V15.98C12.7929 16.34 13.6329 17.075 14.1129 18.185C14.6229 19.295 14.8779 20.78 14.8779 22.64V28.175C14.8779 29.075 14.9079 29.81 14.9679 30.38C15.0279 30.92 15.1779 31.46 15.4179 32H10.3779C10.1979 31.49 10.0779 31.01 10.0179 30.56C9.95787 30.11 9.92787 29.3 9.92787 28.13V22.37C9.92787 20.93 9.68787 19.925 9.20787 19.355C8.75787 18.785 7.96287 18.5 6.82287 18.5H5.11287V32H0.162871V0.499998ZM6.91287 14C7.90287 14 8.63787 13.745 9.11787 13.235C9.62787 12.725 9.88287 11.87 9.88287 10.67V8.24C9.88287 7.1 9.67287 6.275 9.25287 5.765C8.86287 5.255 8.23287 5 7.36287 5H5.11287V14H6.91287ZM18.3123 0.499998H31.8123V5H23.2623V13.325H30.0573V17.825H23.2623V27.5H31.8123V32H18.3123V0.499998ZM41.6799 32.45C39.2799 32.45 37.4499 31.775 36.1899 30.425C34.9299 29.045 34.2999 27.08 34.2999 24.53V7.97C34.2999 5.42 34.9299 3.47 36.1899 2.12C37.4499 0.739998 39.2799 0.0499983 41.6799 0.0499983C44.0799 0.0499983 45.9099 0.739998 47.1699 2.12C48.4299 3.47 49.0599 5.42 49.0599 7.97V10.67H44.3799V7.655C44.3799 5.585 43.5249 4.55 41.8149 4.55C40.1049 4.55 39.2499 5.585 39.2499 7.655V24.89C39.2499 26.93 40.1049 27.95 41.8149 27.95C43.5249 27.95 44.3799 26.93 44.3799 24.89V18.725H41.9049V14.225H49.0599V24.53C49.0599 27.08 48.4299 29.045 47.1699 30.425C45.9099 31.775 44.0799 32.45 41.6799 32.45ZM52.2381 0.499998H57.1881V32H52.2381V0.499998ZM67.3303 32.45C64.9303 32.45 63.1153 31.775 61.8853 30.425C60.6553 29.045 60.0403 27.08 60.0403 24.53V22.73H64.7203V24.89C64.7203 26.93 65.5753 27.95 67.2853 27.95C68.1253 27.95 68.7553 27.71 69.1753 27.23C69.6253 26.72 69.8503 25.91 69.8503 24.8C69.8503 23.48 69.5503 22.325 68.9503 21.335C68.3503 20.315 67.2403 19.1 65.6203 17.69C63.5803 15.89 62.1553 14.27 61.3453 12.83C60.5353 11.36 60.1303 9.71 60.1303 7.88C60.1303 5.39 60.7603 3.47 62.0203 2.12C63.2803 0.739998 65.1103 0.0499983 67.5103 0.0499983C69.8803 0.0499983 71.6653 0.739998 72.8653 2.12C74.0953 3.47 74.7103 5.42 74.7103 7.97V9.275H70.0303V7.655C70.0303 6.575 69.8203 5.795 69.4003 5.315C68.9803 4.805 68.3653 4.55 67.5553 4.55C65.9053 4.55 65.0803 5.555 65.0803 7.565C65.0803 8.705 65.3803 9.77 65.9803 10.76C66.6103 11.75 67.7353 12.95 69.3553 14.36C71.4253 16.16 72.8503 17.795 73.6303 19.265C74.4103 20.735 74.8003 22.46 74.8003 24.44C74.8003 27.02 74.1553 29 72.8653 30.38C71.6053 31.76 69.7603 32.45 67.3303 32.45ZM81.5085 5H76.3335V0.499998H91.6335V5H86.4585V32H81.5085V5ZM94.0301 0.499998H107.53V5H98.9801V13.325H105.775V17.825H98.9801V27.5H107.53V32H94.0301V0.499998ZM110.378 0.499998H117.713C120.263 0.499998 122.123 1.1 123.293 2.3C124.463 3.47 125.048 5.285 125.048 7.745V9.68C125.048 12.95 123.968 15.02 121.808 15.89V15.98C123.008 16.34 123.848 17.075 124.328 18.185C124.838 19.295 125.093 20.78 125.093 22.64V28.175C125.093 29.075 125.123 29.81 125.183 30.38C125.243 30.92 125.393 31.46 125.633 32H120.593C120.413 31.49 120.293 31.01 120.233 30.56C120.173 30.11 120.143 29.3 120.143 28.13V22.37C120.143 20.93 119.903 19.925 119.423 19.355C118.973 18.785 118.178 18.5 117.038 18.5H115.328V32H110.378V0.499998ZM117.128 14C118.118 14 118.853 13.745 119.333 13.235C119.843 12.725 120.098 11.87 120.098 10.67V8.24C120.098 7.1 119.888 6.275 119.468 5.765C119.078 5.255 118.448 5 117.578 5H115.328V14H117.128Z" fill="#372948"/>
</svg>
