<svg width="200" height="200" viewBox="0 0 200 200" fill="none" xmlns="http://www.w3.org/2000/svg">
<rect width="200" height="200" fill="#95BDD5"/>
<path d="M100 92C94.6957 92 89.6086 89.8929 85.8579 86.1421C82.1071 82.3914 80 77.3043 80 72C80 66.6957 82.1071 61.6086 85.8579 57.8579C89.6086 54.1071 94.6957 52 100 52C105.304 52 110.391 54.1071 114.142 57.8579C117.893 61.6086 120 66.6957 120 72C120 77.3043 117.893 82.3914 114.142 86.1421C110.391 89.8929 105.304 92 100 92ZM100 107C115.93 107 130.225 109.855 140 122.315V132H60V122.315C69.775 109.85 84.07 107 100 107Z" fill="#372948"/>
<path d="M57.7663 140.812C57.7663 139.996 57.9543 139.264 58.3303 138.616C58.7143 137.968 59.2303 137.464 59.8783 137.104C60.5343 136.736 61.2503 136.552 62.0263 136.552C62.9143 136.552 63.7023 136.772 64.3903 137.212C65.0863 137.644 65.5903 138.26 65.9023 139.06H64.2583C64.0423 138.62 63.7423 138.292 63.3583 138.076C62.9743 137.86 62.5303 137.752 62.0263 137.752C61.4743 137.752 60.9823 137.876 60.5503 138.124C60.1183 138.372 59.7783 138.728 59.5303 139.192C59.2903 139.656 59.1703 140.196 59.1703 140.812C59.1703 141.428 59.2903 141.968 59.5303 142.432C59.7783 142.896 60.1183 143.256 60.5503 143.512C60.9823 143.76 61.4743 143.884 62.0263 143.884C62.5303 143.884 62.9743 143.776 63.3583 143.56C63.7423 143.344 64.0423 143.016 64.2583 142.576H65.9023C65.5903 143.376 65.0863 143.992 64.3903 144.424C63.7023 144.856 62.9143 145.072 62.0263 145.072C61.2423 145.072 60.5263 144.892 59.8783 144.532C59.2303 144.164 58.7143 143.656 58.3303 143.008C57.9543 142.36 57.7663 141.628 57.7663 140.812ZM70.9235 138.28C71.4275 138.28 71.8755 138.388 72.2675 138.604C72.6675 138.82 72.9795 139.14 73.2035 139.564C73.4355 139.988 73.5515 140.5 73.5515 141.1V145H72.1955V141.304C72.1955 140.712 72.0475 140.26 71.7515 139.948C71.4555 139.628 71.0515 139.468 70.5395 139.468C70.0275 139.468 69.6195 139.628 69.3155 139.948C69.0195 140.26 68.8715 140.712 68.8715 141.304V145H67.5035V136.12H68.8715V139.156C69.1035 138.876 69.3955 138.66 69.7475 138.508C70.1075 138.356 70.4995 138.28 70.9235 138.28ZM74.8405 141.664C74.8405 141 74.9765 140.412 75.2485 139.9C75.5285 139.388 75.9045 138.992 76.3765 138.712C76.8565 138.424 77.3845 138.28 77.9605 138.28C78.4805 138.28 78.9325 138.384 79.3165 138.592C79.7085 138.792 80.0205 139.044 80.2525 139.348V138.388H81.6325V145H80.2525V144.016C80.0205 144.328 79.7045 144.588 79.3045 144.796C78.9045 145.004 78.4485 145.108 77.9365 145.108C77.3685 145.108 76.8485 144.964 76.3765 144.676C75.9045 144.38 75.5285 143.972 75.2485 143.452C74.9765 142.924 74.8405 142.328 74.8405 141.664ZM80.2525 141.688C80.2525 141.232 80.1565 140.836 79.9645 140.5C79.7805 140.164 79.5365 139.908 79.2325 139.732C78.9285 139.556 78.6005 139.468 78.2485 139.468C77.8965 139.468 77.5685 139.556 77.2645 139.732C76.9605 139.9 76.7125 140.152 76.5205 140.488C76.3365 140.816 76.2445 141.208 76.2445 141.664C76.2445 142.12 76.3365 142.52 76.5205 142.864C76.7125 143.208 76.9605 143.472 77.2645 143.656C77.5765 143.832 77.9045 143.92 78.2485 143.92C78.6005 143.92 78.9285 143.832 79.2325 143.656C79.5365 143.48 79.7805 143.224 79.9645 142.888C80.1565 142.544 80.2525 142.144 80.2525 141.688ZM86.7653 138.28C87.2853 138.28 87.7493 138.388 88.1573 138.604C88.5733 138.82 88.8973 139.14 89.1293 139.564C89.3613 139.988 89.4773 140.5 89.4773 141.1V145H88.1213V141.304C88.1213 140.712 87.9733 140.26 87.6773 139.948C87.3813 139.628 86.9773 139.468 86.4653 139.468C85.9533 139.468 85.5453 139.628 85.2413 139.948C84.9453 140.26 84.7973 140.712 84.7973 141.304V145H83.4293V138.388H84.7973V139.144C85.0213 138.872 85.3053 138.66 85.6493 138.508C86.0013 138.356 86.3733 138.28 86.7653 138.28ZM93.8863 138.28C94.3983 138.28 94.8503 138.384 95.2423 138.592C95.6423 138.792 95.9543 139.044 96.1783 139.348V138.388H97.5583V145.108C97.5583 145.716 97.4303 146.256 97.1743 146.728C96.9183 147.208 96.5463 147.584 96.0583 147.856C95.5783 148.128 95.0023 148.264 94.3303 148.264C93.4343 148.264 92.6903 148.052 92.0983 147.628C91.5063 147.212 91.1703 146.644 91.0903 145.924H92.4463C92.5503 146.268 92.7703 146.544 93.1063 146.752C93.4503 146.968 93.8583 147.076 94.3303 147.076C94.8823 147.076 95.3263 146.908 95.6623 146.572C96.0063 146.236 96.1783 145.748 96.1783 145.108V144.004C95.9463 144.316 95.6303 144.58 95.2303 144.796C94.8383 145.004 94.3903 145.108 93.8863 145.108C93.3103 145.108 92.7823 144.964 92.3023 144.676C91.8303 144.38 91.4543 143.972 91.1743 143.452C90.9023 142.924 90.7663 142.328 90.7663 141.664C90.7663 141 90.9023 140.412 91.1743 139.9C91.4543 139.388 91.8303 138.992 92.3023 138.712C92.7823 138.424 93.3103 138.28 93.8863 138.28ZM96.1783 141.688C96.1783 141.232 96.0823 140.836 95.8903 140.5C95.7063 140.164 95.4623 139.908 95.1583 139.732C94.8543 139.556 94.5263 139.468 94.1743 139.468C93.8223 139.468 93.4943 139.556 93.1903 139.732C92.8863 139.9 92.6383 140.152 92.4463 140.488C92.2623 140.816 92.1703 141.208 92.1703 141.664C92.1703 142.12 92.2623 142.52 92.4463 142.864C92.6383 143.208 92.8863 143.472 93.1903 143.656C93.5023 143.832 93.8303 143.92 94.1743 143.92C94.5263 143.92 94.8543 143.832 95.1583 143.656C95.4623 143.48 95.7063 143.224 95.8903 142.888C96.0823 142.544 96.1783 142.144 96.1783 141.688ZM105.415 141.532C105.415 141.78 105.399 142.004 105.367 142.204H100.315C100.355 142.732 100.551 143.156 100.903 143.476C101.255 143.796 101.687 143.956 102.199 143.956C102.935 143.956 103.455 143.648 103.759 143.032H105.235C105.035 143.64 104.671 144.14 104.143 144.532C103.623 144.916 102.975 145.108 102.199 145.108C101.567 145.108 100.999 144.968 100.495 144.688C99.9991 144.4 99.6071 144 99.3191 143.488C99.0391 142.968 98.8991 142.368 98.8991 141.688C98.8991 141.008 99.0351 140.412 99.3071 139.9C99.5871 139.38 99.9751 138.98 100.471 138.7C100.975 138.42 101.551 138.28 102.199 138.28C102.823 138.28 103.379 138.416 103.867 138.688C104.355 138.96 104.735 139.344 105.007 139.84C105.279 140.328 105.415 140.892 105.415 141.532ZM103.987 141.1C103.979 140.596 103.799 140.192 103.447 139.888C103.095 139.584 102.659 139.432 102.139 139.432C101.667 139.432 101.263 139.584 100.927 139.888C100.591 140.184 100.391 140.588 100.327 141.1H103.987ZM115.711 139.144C115.711 139.568 115.611 139.968 115.411 140.344C115.211 140.72 114.891 141.028 114.451 141.268C114.011 141.5 113.447 141.616 112.759 141.616H111.247V145H109.879V136.66H112.759C113.399 136.66 113.939 136.772 114.379 136.996C114.827 137.212 115.159 137.508 115.375 137.884C115.599 138.26 115.711 138.68 115.711 139.144ZM112.759 140.5C113.279 140.5 113.667 140.384 113.923 140.152C114.179 139.912 114.307 139.576 114.307 139.144C114.307 138.232 113.791 137.776 112.759 137.776H111.247V140.5H112.759ZM120.435 138.28C120.939 138.28 121.387 138.388 121.779 138.604C122.179 138.82 122.491 139.14 122.715 139.564C122.947 139.988 123.063 140.5 123.063 141.1V145H121.707V141.304C121.707 140.712 121.559 140.26 121.263 139.948C120.967 139.628 120.563 139.468 120.051 139.468C119.539 139.468 119.131 139.628 118.827 139.948C118.531 140.26 118.383 140.712 118.383 141.304V145H117.015V136.12H118.383V139.156C118.615 138.876 118.907 138.66 119.259 138.508C119.619 138.356 120.011 138.28 120.435 138.28ZM127.676 145.108C127.052 145.108 126.488 144.968 125.984 144.688C125.48 144.4 125.084 144 124.796 143.488C124.508 142.968 124.364 142.368 124.364 141.688C124.364 141.016 124.512 140.42 124.808 139.9C125.104 139.38 125.508 138.98 126.02 138.7C126.532 138.42 127.104 138.28 127.736 138.28C128.368 138.28 128.94 138.42 129.452 138.7C129.964 138.98 130.368 139.38 130.664 139.9C130.96 140.42 131.108 141.016 131.108 141.688C131.108 142.36 130.956 142.956 130.652 143.476C130.348 143.996 129.932 144.4 129.404 144.688C128.884 144.968 128.308 145.108 127.676 145.108ZM127.676 143.92C128.028 143.92 128.356 143.836 128.66 143.668C128.972 143.5 129.224 143.248 129.416 142.912C129.608 142.576 129.704 142.168 129.704 141.688C129.704 141.208 129.612 140.804 129.428 140.476C129.244 140.14 129 139.888 128.696 139.72C128.392 139.552 128.064 139.468 127.712 139.468C127.36 139.468 127.032 139.552 126.728 139.72C126.432 139.888 126.196 140.14 126.02 140.476C125.844 140.804 125.756 141.208 125.756 141.688C125.756 142.4 125.936 142.952 126.296 143.344C126.664 143.728 127.124 143.92 127.676 143.92ZM134.057 139.504V143.164C134.057 143.412 134.113 143.592 134.225 143.704C134.345 143.808 134.545 143.86 134.825 143.86H135.665V145H134.585C133.969 145 133.497 144.856 133.169 144.568C132.841 144.28 132.677 143.812 132.677 143.164V139.504H131.897V138.388H132.677V136.744H134.057V138.388H135.665V139.504H134.057ZM139.793 145.108C139.169 145.108 138.605 144.968 138.101 144.688C137.597 144.4 137.201 144 136.913 143.488C136.625 142.968 136.481 142.368 136.481 141.688C136.481 141.016 136.629 140.42 136.925 139.9C137.221 139.38 137.625 138.98 138.137 138.7C138.649 138.42 139.221 138.28 139.853 138.28C140.485 138.28 141.057 138.42 141.569 138.7C142.081 138.98 142.485 139.38 142.781 139.9C143.077 140.42 143.225 141.016 143.225 141.688C143.225 142.36 143.073 142.956 142.769 143.476C142.465 143.996 142.049 144.4 141.521 144.688C141.001 144.968 140.425 145.108 139.793 145.108ZM139.793 143.92C140.145 143.92 140.473 143.836 140.777 143.668C141.089 143.5 141.341 143.248 141.533 142.912C141.725 142.576 141.821 142.168 141.821 141.688C141.821 141.208 141.729 140.804 141.545 140.476C141.361 140.14 141.117 139.888 140.813 139.72C140.509 139.552 140.181 139.468 139.829 139.468C139.477 139.468 139.149 139.552 138.845 139.72C138.549 139.888 138.313 140.14 138.137 140.476C137.961 140.804 137.873 141.208 137.873 141.688C137.873 142.4 138.053 142.952 138.413 143.344C138.781 143.728 139.241 143.92 139.793 143.92Z" fill="#372948"/>
</svg>
