<svg width="200" height="200" viewBox="0 0 200 200" fill="none" xmlns="http://www.w3.org/2000/svg">
<rect width="200" height="200" fill="#95BFD6"/>
<path d="M100 90C94.6957 90 89.6086 87.8929 85.8579 84.1421C82.1071 80.3914 80 75.3043 80 70C80 64.6957 82.1071 59.6086 85.8579 55.8579C89.6086 52.1071 94.6957 50 100 50C105.304 50 110.391 52.1071 114.142 55.8579C117.893 59.6086 120 64.6957 120 70C120 75.3043 117.893 80.3914 114.142 84.1421C110.391 87.8929 105.304 90 100 90ZM100 105C115.93 105 130.225 107.855 140 120.315V130H60V120.315C69.775 107.85 84.07 105 100 105Z" fill="#372948"/>
<path d="M61.256 134.66V139.976C61.256 140.608 61.42 141.084 61.748 141.404C62.084 141.724 62.548 141.884 63.14 141.884C63.74 141.884 64.204 141.724 64.532 141.404C64.868 141.084 65.036 140.608 65.036 139.976V134.66H66.404V139.952C66.404 140.632 66.256 141.208 65.96 141.68C65.664 142.152 65.268 142.504 64.772 142.736C64.276 142.968 63.728 143.084 63.128 143.084C62.528 143.084 61.98 142.968 61.484 142.736C60.996 142.504 60.608 142.152 60.32 141.68C60.032 141.208 59.888 140.632 59.888 139.952V134.66H61.256ZM69.5532 137.36C69.7852 137.056 70.1012 136.8 70.5012 136.592C70.9012 136.384 71.3532 136.28 71.8572 136.28C72.4332 136.28 72.9572 136.424 73.4292 136.712C73.9092 136.992 74.2852 137.388 74.5572 137.9C74.8292 138.412 74.9652 139 74.9652 139.664C74.9652 140.328 74.8292 140.924 74.5572 141.452C74.2852 141.972 73.9092 142.38 73.4292 142.676C72.9572 142.964 72.4332 143.108 71.8572 143.108C71.3532 143.108 70.9052 143.008 70.5132 142.808C70.1212 142.6 69.8012 142.344 69.5532 142.04V146.144H68.1852V136.388H69.5532V137.36ZM73.5732 139.664C73.5732 139.208 73.4772 138.816 73.2852 138.488C73.1012 138.152 72.8532 137.9 72.5412 137.732C72.2372 137.556 71.9092 137.468 71.5572 137.468C71.2132 137.468 70.8852 137.556 70.5732 137.732C70.2692 137.908 70.0212 138.164 69.8292 138.5C69.6452 138.836 69.5532 139.232 69.5532 139.688C69.5532 140.144 69.6452 140.544 69.8292 140.888C70.0212 141.224 70.2692 141.48 70.5732 141.656C70.8852 141.832 71.2132 141.92 71.5572 141.92C71.9092 141.92 72.2372 141.832 72.5412 141.656C72.8532 141.472 73.1012 141.208 73.2852 140.864C73.4772 140.52 73.5732 140.12 73.5732 139.664ZM77.686 134.12V143H76.318V134.12H77.686ZM82.35 143.108C81.726 143.108 81.162 142.968 80.658 142.688C80.154 142.4 79.758 142 79.47 141.488C79.182 140.968 79.038 140.368 79.038 139.688C79.038 139.016 79.186 138.42 79.482 137.9C79.778 137.38 80.182 136.98 80.694 136.7C81.206 136.42 81.778 136.28 82.41 136.28C83.042 136.28 83.614 136.42 84.126 136.7C84.638 136.98 85.042 137.38 85.338 137.9C85.634 138.42 85.782 139.016 85.782 139.688C85.782 140.36 85.63 140.956 85.326 141.476C85.022 141.996 84.606 142.4 84.078 142.688C83.558 142.968 82.982 143.108 82.35 143.108ZM82.35 141.92C82.702 141.92 83.03 141.836 83.334 141.668C83.646 141.5 83.898 141.248 84.09 140.912C84.282 140.576 84.378 140.168 84.378 139.688C84.378 139.208 84.286 138.804 84.102 138.476C83.918 138.14 83.674 137.888 83.37 137.72C83.066 137.552 82.738 137.468 82.386 137.468C82.034 137.468 81.706 137.552 81.402 137.72C81.106 137.888 80.87 138.14 80.694 138.476C80.518 138.804 80.43 139.208 80.43 139.688C80.43 140.4 80.61 140.952 80.97 141.344C81.338 141.728 81.798 141.92 82.35 141.92ZM86.6784 139.664C86.6784 139 86.8144 138.412 87.0864 137.9C87.3664 137.388 87.7424 136.992 88.2144 136.712C88.6944 136.424 89.2224 136.28 89.7984 136.28C90.3184 136.28 90.7704 136.384 91.1544 136.592C91.5464 136.792 91.8584 137.044 92.0904 137.348V136.388H93.4704V143H92.0904V142.016C91.8584 142.328 91.5424 142.588 91.1424 142.796C90.7424 143.004 90.2864 143.108 89.7744 143.108C89.2064 143.108 88.6864 142.964 88.2144 142.676C87.7424 142.38 87.3664 141.972 87.0864 141.452C86.8144 140.924 86.6784 140.328 86.6784 139.664ZM92.0904 139.688C92.0904 139.232 91.9944 138.836 91.8024 138.5C91.6184 138.164 91.3744 137.908 91.0704 137.732C90.7664 137.556 90.4384 137.468 90.0864 137.468C89.7344 137.468 89.4064 137.556 89.1024 137.732C88.7984 137.9 88.5504 138.152 88.3584 138.488C88.1744 138.816 88.0824 139.208 88.0824 139.664C88.0824 140.12 88.1744 140.52 88.3584 140.864C88.5504 141.208 88.7984 141.472 89.1024 141.656C89.4144 141.832 89.7424 141.92 90.0864 141.92C90.4384 141.92 90.7664 141.832 91.0704 141.656C91.3744 141.48 91.6184 141.224 91.8024 140.888C91.9944 140.544 92.0904 140.144 92.0904 139.688ZM94.8112 139.664C94.8112 139 94.9472 138.412 95.2192 137.9C95.4992 137.388 95.8752 136.992 96.3472 136.712C96.8272 136.424 97.3592 136.28 97.9432 136.28C98.3752 136.28 98.7992 136.376 99.2152 136.568C99.6392 136.752 99.9752 137 100.223 137.312V134.12H101.603V143H100.223V142.004C99.9992 142.324 99.6872 142.588 99.2872 142.796C98.8952 143.004 98.4432 143.108 97.9312 143.108C97.3552 143.108 96.8272 142.964 96.3472 142.676C95.8752 142.38 95.4992 141.972 95.2192 141.452C94.9472 140.924 94.8112 140.328 94.8112 139.664ZM100.223 139.688C100.223 139.232 100.127 138.836 99.9352 138.5C99.7512 138.164 99.5072 137.908 99.2032 137.732C98.8992 137.556 98.5712 137.468 98.2192 137.468C97.8672 137.468 97.5392 137.556 97.2352 137.732C96.9312 137.9 96.6832 138.152 96.4912 138.488C96.3072 138.816 96.2152 139.208 96.2152 139.664C96.2152 140.12 96.3072 140.52 96.4912 140.864C96.6832 141.208 96.9312 141.472 97.2352 141.656C97.5472 141.832 97.8752 141.92 98.2192 141.92C98.5712 141.92 98.8992 141.832 99.2032 141.656C99.5072 141.48 99.7512 141.224 99.9352 140.888C100.127 140.544 100.223 140.144 100.223 139.688ZM112.349 137.144C112.349 137.568 112.249 137.968 112.049 138.344C111.849 138.72 111.529 139.028 111.089 139.268C110.649 139.5 110.085 139.616 109.397 139.616H107.885V143H106.517V134.66H109.397C110.037 134.66 110.577 134.772 111.017 134.996C111.465 135.212 111.797 135.508 112.013 135.884C112.237 136.26 112.349 136.68 112.349 137.144ZM109.397 138.5C109.917 138.5 110.305 138.384 110.561 138.152C110.817 137.912 110.945 137.576 110.945 137.144C110.945 136.232 110.429 135.776 109.397 135.776H107.885V138.5H109.397ZM117.074 136.28C117.578 136.28 118.026 136.388 118.418 136.604C118.818 136.82 119.13 137.14 119.354 137.564C119.586 137.988 119.702 138.5 119.702 139.1V143H118.346V139.304C118.346 138.712 118.198 138.26 117.902 137.948C117.606 137.628 117.202 137.468 116.69 137.468C116.178 137.468 115.77 137.628 115.466 137.948C115.17 138.26 115.022 138.712 115.022 139.304V143H113.654V134.12H115.022V137.156C115.254 136.876 115.546 136.66 115.898 136.508C116.258 136.356 116.65 136.28 117.074 136.28ZM124.315 143.108C123.691 143.108 123.127 142.968 122.623 142.688C122.119 142.4 121.723 142 121.435 141.488C121.147 140.968 121.003 140.368 121.003 139.688C121.003 139.016 121.151 138.42 121.447 137.9C121.743 137.38 122.147 136.98 122.659 136.7C123.171 136.42 123.743 136.28 124.375 136.28C125.007 136.28 125.579 136.42 126.091 136.7C126.603 136.98 127.007 137.38 127.303 137.9C127.599 138.42 127.747 139.016 127.747 139.688C127.747 140.36 127.595 140.956 127.291 141.476C126.987 141.996 126.571 142.4 126.043 142.688C125.523 142.968 124.947 143.108 124.315 143.108ZM124.315 141.92C124.667 141.92 124.995 141.836 125.299 141.668C125.611 141.5 125.863 141.248 126.055 140.912C126.247 140.576 126.343 140.168 126.343 139.688C126.343 139.208 126.251 138.804 126.067 138.476C125.883 138.14 125.639 137.888 125.335 137.72C125.031 137.552 124.703 137.468 124.351 137.468C123.999 137.468 123.671 137.552 123.367 137.72C123.071 137.888 122.835 138.14 122.659 138.476C122.483 138.804 122.395 139.208 122.395 139.688C122.395 140.4 122.575 140.952 122.935 141.344C123.303 141.728 123.763 141.92 124.315 141.92ZM130.695 137.504V141.164C130.695 141.412 130.751 141.592 130.863 141.704C130.983 141.808 131.183 141.86 131.463 141.86H132.303V143H131.223C130.607 143 130.135 142.856 129.807 142.568C129.479 142.28 129.315 141.812 129.315 141.164V137.504H128.535V136.388H129.315V134.744H130.695V136.388H132.303V137.504H130.695ZM136.432 143.108C135.808 143.108 135.244 142.968 134.74 142.688C134.236 142.4 133.84 142 133.552 141.488C133.264 140.968 133.12 140.368 133.12 139.688C133.12 139.016 133.268 138.42 133.564 137.9C133.86 137.38 134.264 136.98 134.776 136.7C135.288 136.42 135.86 136.28 136.492 136.28C137.124 136.28 137.696 136.42 138.208 136.7C138.72 136.98 139.124 137.38 139.42 137.9C139.716 138.42 139.864 139.016 139.864 139.688C139.864 140.36 139.712 140.956 139.408 141.476C139.104 141.996 138.688 142.4 138.16 142.688C137.64 142.968 137.064 143.108 136.432 143.108ZM136.432 141.92C136.784 141.92 137.112 141.836 137.416 141.668C137.728 141.5 137.98 141.248 138.172 140.912C138.364 140.576 138.46 140.168 138.46 139.688C138.46 139.208 138.368 138.804 138.184 138.476C138 138.14 137.756 137.888 137.452 137.72C137.148 137.552 136.82 137.468 136.468 137.468C136.116 137.468 135.788 137.552 135.484 137.72C135.188 137.888 134.952 138.14 134.776 138.476C134.6 138.804 134.512 139.208 134.512 139.688C134.512 140.4 134.692 140.952 135.052 141.344C135.42 141.728 135.88 141.92 136.432 141.92Z" fill="#372948"/>
</svg>
