<svg width="200" height="200" viewBox="0 0 200 200" fill="none" xmlns="http://www.w3.org/2000/svg">
<rect width="200" height="200" fill="#91B4CF"/>
<path fill-rule="evenodd" clip-rule="evenodd" d="M79 51H129C135.63 51 141.989 53.6339 146.678 58.3223C151.366 63.0107 154 69.3696 154 76V94.75C154 101.38 151.366 107.739 146.678 112.428C141.989 117.116 135.63 119.75 129 119.75H79C72.3696 119.75 66.0107 117.116 61.3223 112.428C56.6339 107.739 54 101.38 54 94.75V76C54 69.3696 56.6339 63.0107 61.3223 58.3223C66.0107 53.6339 72.3696 51 79 51ZM79 57.25C74.0272 57.25 69.2581 59.2254 65.7417 62.7417C62.2254 66.2581 60.25 71.0272 60.25 76V94.75C60.25 99.7228 62.2254 104.492 65.7417 108.008C69.2581 111.525 74.0272 113.5 79 113.5H129C133.973 113.5 138.742 111.525 142.258 108.008C145.775 104.492 147.75 99.7228 147.75 94.75V76C147.75 71.0272 145.775 66.2581 142.258 62.7417C138.742 59.2254 133.973 57.25 129 57.25H79Z" fill="#372948"/>
<path d="M82.5 69C81.6778 69 80.8893 69.3266 80.308 69.908C79.7266 70.4893 79.4 71.2778 79.4 72.1V81.4H70.1C69.2778 81.4 68.4893 81.7266 67.908 82.308C67.3266 82.8893 67 83.6778 67 84.5C67 85.3222 67.3266 86.1107 67.908 86.692C68.4893 87.2734 69.2778 87.6 70.1 87.6H79.4V96.9C79.4 97.7222 79.7266 98.5107 80.308 99.092C80.8893 99.6734 81.6778 100 82.5 100C83.3222 100 84.1107 99.6734 84.692 99.092C85.2734 98.5107 85.6 97.7222 85.6 96.9V87.6H94.9C95.7222 87.6 96.5107 87.2734 97.092 86.692C97.6734 86.1107 98 85.3222 98 84.5C98 83.6778 97.6734 82.8893 97.092 82.308C96.5107 81.7266 95.7222 81.4 94.9 81.4H85.6V72.1C85.6 71.2778 85.2734 70.4893 84.692 69.908C84.1107 69.3266 83.3222 69 82.5 69ZM129 75.2C129 76.8443 128.347 78.4213 127.184 79.5841C126.021 80.7468 124.444 81.4 122.8 81.4C121.156 81.4 119.579 80.7468 118.416 79.5841C117.253 78.4213 116.6 76.8443 116.6 75.2C116.6 73.5557 117.253 71.9787 118.416 70.8159C119.579 69.6532 121.156 69 122.8 69C124.444 69 126.021 69.6532 127.184 70.8159C128.347 71.9787 129 73.5557 129 75.2ZM122.8 93.8C122.8 95.4443 122.147 97.0213 120.984 98.1841C119.821 99.3468 118.244 100 116.6 100C114.956 100 113.379 99.3468 112.216 98.1841C111.053 97.0213 110.4 95.4443 110.4 93.8C110.4 92.1557 111.053 90.5787 112.216 89.4159C113.379 88.2532 114.956 87.6 116.6 87.6C118.244 87.6 119.821 88.2532 120.984 89.4159C122.147 90.5787 122.8 92.1557 122.8 93.8Z" fill="#372948"/>
<path d="M57.008 136.88V143.968C57.008 144.811 57.2267 145.445 57.664 145.872C58.112 146.299 58.7307 146.512 59.52 146.512C60.32 146.512 60.9387 146.299 61.376 145.872C61.824 145.445 62.048 144.811 62.048 143.968V136.88H63.872V143.936C63.872 144.843 63.6747 145.611 63.28 146.24C62.8853 146.869 62.3573 147.339 61.696 147.648C61.0347 147.957 60.304 148.112 59.504 148.112C58.704 148.112 57.9733 147.957 57.312 147.648C56.6613 147.339 56.144 146.869 55.76 146.24C55.376 145.611 55.184 144.843 55.184 143.936V136.88H57.008ZM68.0709 140.48C68.3802 140.075 68.8015 139.733 69.3349 139.456C69.8682 139.179 70.4709 139.04 71.1429 139.04C71.9109 139.04 72.6095 139.232 73.2389 139.616C73.8789 139.989 74.3802 140.517 74.7429 141.2C75.1055 141.883 75.2869 142.667 75.2869 143.552C75.2869 144.437 75.1055 145.232 74.7429 145.936C74.3802 146.629 73.8789 147.173 73.2389 147.568C72.6095 147.952 71.9109 148.144 71.1429 148.144C70.4709 148.144 69.8735 148.011 69.3509 147.744C68.8282 147.467 68.4015 147.125 68.0709 146.72V152.192H66.2469V139.184H68.0709V140.48ZM73.4309 143.552C73.4309 142.944 73.3029 142.421 73.0469 141.984C72.8015 141.536 72.4709 141.2 72.0549 140.976C71.6495 140.741 71.2122 140.624 70.7429 140.624C70.2842 140.624 69.8469 140.741 69.4309 140.976C69.0255 141.211 68.6949 141.552 68.4389 142C68.1935 142.448 68.0709 142.976 68.0709 143.584C68.0709 144.192 68.1935 144.725 68.4389 145.184C68.6949 145.632 69.0255 145.973 69.4309 146.208C69.8469 146.443 70.2842 146.56 70.7429 146.56C71.2122 146.56 71.6495 146.443 72.0549 146.208C72.4709 145.963 72.8015 145.611 73.0469 145.152C73.3029 144.693 73.4309 144.16 73.4309 143.552ZM78.9146 136.16V148H77.0906V136.16H78.9146ZM85.1334 148.144C84.3014 148.144 83.5494 147.957 82.8774 147.584C82.2054 147.2 81.6774 146.667 81.2934 145.984C80.9094 145.291 80.7174 144.491 80.7174 143.584C80.7174 142.688 80.9147 141.893 81.3094 141.2C81.704 140.507 82.2427 139.973 82.9254 139.6C83.608 139.227 84.3707 139.04 85.2134 139.04C86.056 139.04 86.8187 139.227 87.5014 139.6C88.184 139.973 88.7227 140.507 89.1174 141.2C89.512 141.893 89.7094 142.688 89.7094 143.584C89.7094 144.48 89.5067 145.275 89.1014 145.968C88.696 146.661 88.1414 147.2 87.4374 147.584C86.744 147.957 85.976 148.144 85.1334 148.144ZM85.1334 146.56C85.6027 146.56 86.04 146.448 86.4454 146.224C86.8614 146 87.1974 145.664 87.4534 145.216C87.7094 144.768 87.8374 144.224 87.8374 143.584C87.8374 142.944 87.7147 142.405 87.4694 141.968C87.224 141.52 86.8987 141.184 86.4934 140.96C86.088 140.736 85.6507 140.624 85.1814 140.624C84.712 140.624 84.2747 140.736 83.8694 140.96C83.4747 141.184 83.16 141.52 82.9254 141.968C82.6907 142.405 82.5734 142.944 82.5734 143.584C82.5734 144.533 82.8134 145.269 83.2934 145.792C83.784 146.304 84.3974 146.56 85.1334 146.56ZM90.9045 143.552C90.9045 142.667 91.0858 141.883 91.4485 141.2C91.8218 140.517 92.3232 139.989 92.9525 139.616C93.5925 139.232 94.2965 139.04 95.0645 139.04C95.7578 139.04 96.3605 139.179 96.8725 139.456C97.3952 139.723 97.8112 140.059 98.1205 140.464V139.184H99.9605V148H98.1205V146.688C97.8112 147.104 97.3898 147.451 96.8565 147.728C96.3232 148.005 95.7152 148.144 95.0325 148.144C94.2752 148.144 93.5818 147.952 92.9525 147.568C92.3232 147.173 91.8218 146.629 91.4485 145.936C91.0858 145.232 90.9045 144.437 90.9045 143.552ZM98.1205 143.584C98.1205 142.976 97.9925 142.448 97.7365 142C97.4912 141.552 97.1658 141.211 96.7605 140.976C96.3552 140.741 95.9178 140.624 95.4485 140.624C94.9792 140.624 94.5418 140.741 94.1365 140.976C93.7312 141.2 93.4005 141.536 93.1445 141.984C92.8992 142.421 92.7765 142.944 92.7765 143.552C92.7765 144.16 92.8992 144.693 93.1445 145.152C93.4005 145.611 93.7312 145.963 94.1365 146.208C94.5525 146.443 94.9898 146.56 95.4485 146.56C95.9178 146.56 96.3552 146.443 96.7605 146.208C97.1658 145.973 97.4912 145.632 97.7365 145.184C97.9925 144.725 98.1205 144.192 98.1205 143.584ZM101.748 143.552C101.748 142.667 101.93 141.883 102.292 141.2C102.666 140.517 103.167 139.989 103.796 139.616C104.436 139.232 105.146 139.04 105.924 139.04C106.5 139.04 107.066 139.168 107.62 139.424C108.186 139.669 108.634 140 108.964 140.416V136.16H110.804V148H108.964V146.672C108.666 147.099 108.25 147.451 107.716 147.728C107.194 148.005 106.591 148.144 105.908 148.144C105.14 148.144 104.436 147.952 103.796 147.568C103.167 147.173 102.666 146.629 102.292 145.936C101.93 145.232 101.748 144.437 101.748 143.552ZM108.964 143.584C108.964 142.976 108.836 142.448 108.58 142C108.335 141.552 108.01 141.211 107.604 140.976C107.199 140.741 106.762 140.624 106.292 140.624C105.823 140.624 105.386 140.741 104.98 140.976C104.575 141.2 104.244 141.536 103.988 141.984C103.743 142.421 103.62 142.944 103.62 143.552C103.62 144.16 103.743 144.693 103.988 145.152C104.244 145.611 104.575 145.963 104.98 146.208C105.396 146.443 105.834 146.56 106.292 146.56C106.762 146.56 107.199 146.443 107.604 146.208C108.01 145.973 108.335 145.632 108.58 145.184C108.836 144.725 108.964 144.192 108.964 143.584ZM125.132 140.192C125.132 140.757 124.999 141.291 124.732 141.792C124.466 142.293 124.039 142.704 123.452 143.024C122.866 143.333 122.114 143.488 121.196 143.488H119.18V148H117.356V136.88H121.196C122.05 136.88 122.77 137.029 123.356 137.328C123.954 137.616 124.396 138.011 124.684 138.512C124.983 139.013 125.132 139.573 125.132 140.192ZM121.196 142C121.89 142 122.407 141.845 122.748 141.536C123.09 141.216 123.26 140.768 123.26 140.192C123.26 138.976 122.572 138.368 121.196 138.368H119.18V142H121.196ZM131.432 139.04C132.104 139.04 132.701 139.184 133.224 139.472C133.757 139.76 134.173 140.187 134.472 140.752C134.781 141.317 134.936 142 134.936 142.8V148H133.128V143.072C133.128 142.283 132.931 141.68 132.536 141.264C132.141 140.837 131.603 140.624 130.92 140.624C130.237 140.624 129.693 140.837 129.288 141.264C128.893 141.68 128.696 142.283 128.696 143.072V148H126.872V136.16H128.696V140.208C129.005 139.835 129.395 139.547 129.864 139.344C130.344 139.141 130.867 139.04 131.432 139.04ZM141.087 148.144C140.255 148.144 139.503 147.957 138.831 147.584C138.159 147.2 137.631 146.667 137.247 145.984C136.863 145.291 136.671 144.491 136.671 143.584C136.671 142.688 136.868 141.893 137.263 141.2C137.657 140.507 138.196 139.973 138.879 139.6C139.561 139.227 140.324 139.04 141.167 139.04C142.009 139.04 142.772 139.227 143.455 139.6C144.137 139.973 144.676 140.507 145.071 141.2C145.465 141.893 145.663 142.688 145.663 143.584C145.663 144.48 145.46 145.275 145.055 145.968C144.649 146.661 144.095 147.2 143.391 147.584C142.697 147.957 141.929 148.144 141.087 148.144ZM141.087 146.56C141.556 146.56 141.993 146.448 142.399 146.224C142.815 146 143.151 145.664 143.407 145.216C143.663 144.768 143.791 144.224 143.791 143.584C143.791 142.944 143.668 142.405 143.423 141.968C143.177 141.52 142.852 141.184 142.447 140.96C142.041 140.736 141.604 140.624 141.135 140.624C140.665 140.624 140.228 140.736 139.823 140.96C139.428 141.184 139.113 141.52 138.879 141.968C138.644 142.405 138.527 142.944 138.527 143.584C138.527 144.533 138.767 145.269 139.247 145.792C139.737 146.304 140.351 146.56 141.087 146.56ZM149.594 140.672V145.552C149.594 145.883 149.668 146.123 149.818 146.272C149.978 146.411 150.244 146.48 150.618 146.48H151.738V148H150.298C149.476 148 148.847 147.808 148.41 147.424C147.972 147.04 147.754 146.416 147.754 145.552V140.672H146.714V139.184H147.754V136.992H149.594V139.184H151.738V140.672H149.594ZM157.243 148.144C156.411 148.144 155.659 147.957 154.987 147.584C154.315 147.2 153.787 146.667 153.403 145.984C153.019 145.291 152.827 144.491 152.827 143.584C152.827 142.688 153.024 141.893 153.419 141.2C153.813 140.507 154.352 139.973 155.035 139.6C155.717 139.227 156.48 139.04 157.323 139.04C158.165 139.04 158.928 139.227 159.611 139.6C160.293 139.973 160.832 140.507 161.227 141.2C161.621 141.893 161.819 142.688 161.819 143.584C161.819 144.48 161.616 145.275 161.211 145.968C160.805 146.661 160.251 147.2 159.547 147.584C158.853 147.957 158.085 148.144 157.243 148.144ZM157.243 146.56C157.712 146.56 158.149 146.448 158.555 146.224C158.971 146 159.307 145.664 159.563 145.216C159.819 144.768 159.947 144.224 159.947 143.584C159.947 142.944 159.824 142.405 159.579 141.968C159.333 141.52 159.008 141.184 158.603 140.96C158.197 140.736 157.76 140.624 157.291 140.624C156.821 140.624 156.384 140.736 155.979 140.96C155.584 141.184 155.269 141.52 155.035 141.968C154.8 142.405 154.683 142.944 154.683 143.584C154.683 144.533 154.923 145.269 155.403 145.792C155.893 146.304 156.507 146.56 157.243 146.56Z" fill="#372948"/>
</svg>
