<svg width="200" height="200" viewBox="0 0 200 200" fill="none" xmlns="http://www.w3.org/2000/svg">
<rect width="200" height="200" fill="#90B1CD"/>
<path d="M48.008 135.88V142.968C48.008 143.811 48.2267 144.445 48.664 144.872C49.112 145.299 49.7307 145.512 50.52 145.512C51.32 145.512 51.9387 145.299 52.376 144.872C52.824 144.445 53.048 143.811 53.048 142.968V135.88H54.872V142.936C54.872 143.843 54.6747 144.611 54.28 145.24C53.8853 145.869 53.3573 146.339 52.696 146.648C52.0347 146.957 51.304 147.112 50.504 147.112C49.704 147.112 48.9733 146.957 48.312 146.648C47.6613 146.339 47.144 145.869 46.76 145.24C46.376 144.611 46.184 143.843 46.184 142.936V135.88H48.008ZM59.0709 139.48C59.3802 139.075 59.8015 138.733 60.3349 138.456C60.8682 138.179 61.4709 138.04 62.1429 138.04C62.9109 138.04 63.6095 138.232 64.2389 138.616C64.8789 138.989 65.3802 139.517 65.7429 140.2C66.1055 140.883 66.2869 141.667 66.2869 142.552C66.2869 143.437 66.1055 144.232 65.7429 144.936C65.3802 145.629 64.8789 146.173 64.2389 146.568C63.6095 146.952 62.9109 147.144 62.1429 147.144C61.4709 147.144 60.8735 147.011 60.3509 146.744C59.8282 146.467 59.4015 146.125 59.0709 145.72V151.192H57.2469V138.184H59.0709V139.48ZM64.4309 142.552C64.4309 141.944 64.3029 141.421 64.0469 140.984C63.8015 140.536 63.4709 140.2 63.0549 139.976C62.6495 139.741 62.2122 139.624 61.7429 139.624C61.2842 139.624 60.8469 139.741 60.4309 139.976C60.0255 140.211 59.6949 140.552 59.4389 141C59.1935 141.448 59.0709 141.976 59.0709 142.584C59.0709 143.192 59.1935 143.725 59.4389 144.184C59.6949 144.632 60.0255 144.973 60.4309 145.208C60.8469 145.443 61.2842 145.56 61.7429 145.56C62.2122 145.56 62.6495 145.443 63.0549 145.208C63.4709 144.963 63.8015 144.611 64.0469 144.152C64.3029 143.693 64.4309 143.16 64.4309 142.552ZM69.9146 135.16V147H68.0906V135.16H69.9146ZM76.1334 147.144C75.3014 147.144 74.5494 146.957 73.8774 146.584C73.2054 146.2 72.6774 145.667 72.2934 144.984C71.9094 144.291 71.7174 143.491 71.7174 142.584C71.7174 141.688 71.9147 140.893 72.3094 140.2C72.704 139.507 73.2427 138.973 73.9254 138.6C74.608 138.227 75.3707 138.04 76.2134 138.04C77.056 138.04 77.8187 138.227 78.5014 138.6C79.184 138.973 79.7227 139.507 80.1174 140.2C80.512 140.893 80.7094 141.688 80.7094 142.584C80.7094 143.48 80.5067 144.275 80.1014 144.968C79.696 145.661 79.1414 146.2 78.4374 146.584C77.744 146.957 76.976 147.144 76.1334 147.144ZM76.1334 145.56C76.6027 145.56 77.04 145.448 77.4454 145.224C77.8614 145 78.1974 144.664 78.4534 144.216C78.7094 143.768 78.8374 143.224 78.8374 142.584C78.8374 141.944 78.7147 141.405 78.4694 140.968C78.224 140.52 77.8987 140.184 77.4934 139.96C77.088 139.736 76.6507 139.624 76.1814 139.624C75.712 139.624 75.2747 139.736 74.8694 139.96C74.4747 140.184 74.16 140.52 73.9254 140.968C73.6907 141.405 73.5734 141.944 73.5734 142.584C73.5734 143.533 73.8134 144.269 74.2934 144.792C74.784 145.304 75.3974 145.56 76.1334 145.56ZM81.9045 142.552C81.9045 141.667 82.0858 140.883 82.4485 140.2C82.8218 139.517 83.3232 138.989 83.9525 138.616C84.5925 138.232 85.2965 138.04 86.0645 138.04C86.7578 138.04 87.3605 138.179 87.8725 138.456C88.3952 138.723 88.8112 139.059 89.1205 139.464V138.184H90.9605V147H89.1205V145.688C88.8112 146.104 88.3898 146.451 87.8565 146.728C87.3232 147.005 86.7152 147.144 86.0325 147.144C85.2752 147.144 84.5818 146.952 83.9525 146.568C83.3232 146.173 82.8218 145.629 82.4485 144.936C82.0858 144.232 81.9045 143.437 81.9045 142.552ZM89.1205 142.584C89.1205 141.976 88.9925 141.448 88.7365 141C88.4912 140.552 88.1658 140.211 87.7605 139.976C87.3552 139.741 86.9178 139.624 86.4485 139.624C85.9792 139.624 85.5418 139.741 85.1365 139.976C84.7312 140.2 84.4005 140.536 84.1445 140.984C83.8992 141.421 83.7765 141.944 83.7765 142.552C83.7765 143.16 83.8992 143.693 84.1445 144.152C84.4005 144.611 84.7312 144.963 85.1365 145.208C85.5525 145.443 85.9898 145.56 86.4485 145.56C86.9178 145.56 87.3552 145.443 87.7605 145.208C88.1658 144.973 88.4912 144.632 88.7365 144.184C88.9925 143.725 89.1205 143.192 89.1205 142.584ZM92.7483 142.552C92.7483 141.667 92.9296 140.883 93.2923 140.2C93.6656 139.517 94.1669 138.989 94.7963 138.616C95.4363 138.232 96.1456 138.04 96.9243 138.04C97.5003 138.04 98.0656 138.168 98.6203 138.424C99.1856 138.669 99.6336 139 99.9643 139.416V135.16H101.804V147H99.9643V145.672C99.6656 146.099 99.2496 146.451 98.7163 146.728C98.1936 147.005 97.5909 147.144 96.9083 147.144C96.1403 147.144 95.4363 146.952 94.7963 146.568C94.1669 146.173 93.6656 145.629 93.2923 144.936C92.9296 144.232 92.7483 143.437 92.7483 142.552ZM99.9643 142.584C99.9643 141.976 99.8363 141.448 99.5803 141C99.3349 140.552 99.0096 140.211 98.6043 139.976C98.1989 139.741 97.7616 139.624 97.2923 139.624C96.8229 139.624 96.3856 139.741 95.9803 139.976C95.5749 140.2 95.2443 140.536 94.9883 140.984C94.7429 141.421 94.6203 141.944 94.6203 142.552C94.6203 143.16 94.7429 143.693 94.9883 144.152C95.2443 144.611 95.5749 144.963 95.9803 145.208C96.3963 145.443 96.8336 145.56 97.2923 145.56C97.7616 145.56 98.1989 145.443 98.6043 145.208C99.0096 144.973 99.3349 144.632 99.5803 144.184C99.8363 143.725 99.9643 143.192 99.9643 142.584ZM116.132 139.192C116.132 139.757 115.999 140.291 115.732 140.792C115.466 141.293 115.039 141.704 114.452 142.024C113.866 142.333 113.114 142.488 112.196 142.488H110.18V147H108.356V135.88H112.196C113.05 135.88 113.77 136.029 114.356 136.328C114.954 136.616 115.396 137.011 115.684 137.512C115.983 138.013 116.132 138.573 116.132 139.192ZM112.196 141C112.89 141 113.407 140.845 113.748 140.536C114.09 140.216 114.26 139.768 114.26 139.192C114.26 137.976 113.572 137.368 112.196 137.368H110.18V141H112.196ZM122.432 138.04C123.104 138.04 123.701 138.184 124.224 138.472C124.757 138.76 125.173 139.187 125.472 139.752C125.781 140.317 125.936 141 125.936 141.8V147H124.128V142.072C124.128 141.283 123.931 140.68 123.536 140.264C123.141 139.837 122.603 139.624 121.92 139.624C121.237 139.624 120.693 139.837 120.288 140.264C119.893 140.68 119.696 141.283 119.696 142.072V147H117.872V135.16H119.696V139.208C120.005 138.835 120.395 138.547 120.864 138.344C121.344 138.141 121.867 138.04 122.432 138.04ZM132.087 147.144C131.255 147.144 130.503 146.957 129.831 146.584C129.159 146.2 128.631 145.667 128.247 144.984C127.863 144.291 127.671 143.491 127.671 142.584C127.671 141.688 127.868 140.893 128.263 140.2C128.657 139.507 129.196 138.973 129.879 138.6C130.561 138.227 131.324 138.04 132.167 138.04C133.009 138.04 133.772 138.227 134.455 138.6C135.137 138.973 135.676 139.507 136.071 140.2C136.465 140.893 136.663 141.688 136.663 142.584C136.663 143.48 136.46 144.275 136.055 144.968C135.649 145.661 135.095 146.2 134.391 146.584C133.697 146.957 132.929 147.144 132.087 147.144ZM132.087 145.56C132.556 145.56 132.993 145.448 133.399 145.224C133.815 145 134.151 144.664 134.407 144.216C134.663 143.768 134.791 143.224 134.791 142.584C134.791 141.944 134.668 141.405 134.423 140.968C134.177 140.52 133.852 140.184 133.447 139.96C133.041 139.736 132.604 139.624 132.135 139.624C131.665 139.624 131.228 139.736 130.823 139.96C130.428 140.184 130.113 140.52 129.879 140.968C129.644 141.405 129.527 141.944 129.527 142.584C129.527 143.533 129.767 144.269 130.247 144.792C130.737 145.304 131.351 145.56 132.087 145.56ZM140.594 139.672V144.552C140.594 144.883 140.668 145.123 140.818 145.272C140.978 145.411 141.244 145.48 141.618 145.48H142.738V147H141.298C140.476 147 139.847 146.808 139.41 146.424C138.972 146.04 138.754 145.416 138.754 144.552V139.672H137.714V138.184H138.754V135.992H140.594V138.184H142.738V139.672H140.594ZM148.243 147.144C147.411 147.144 146.659 146.957 145.987 146.584C145.315 146.2 144.787 145.667 144.403 144.984C144.019 144.291 143.827 143.491 143.827 142.584C143.827 141.688 144.024 140.893 144.419 140.2C144.813 139.507 145.352 138.973 146.035 138.6C146.717 138.227 147.48 138.04 148.323 138.04C149.165 138.04 149.928 138.227 150.611 138.6C151.293 138.973 151.832 139.507 152.227 140.2C152.621 140.893 152.819 141.688 152.819 142.584C152.819 143.48 152.616 144.275 152.211 144.968C151.805 145.661 151.251 146.2 150.547 146.584C149.853 146.957 149.085 147.144 148.243 147.144ZM148.243 145.56C148.712 145.56 149.149 145.448 149.555 145.224C149.971 145 150.307 144.664 150.563 144.216C150.819 143.768 150.947 143.224 150.947 142.584C150.947 141.944 150.824 141.405 150.579 140.968C150.333 140.52 150.008 140.184 149.603 139.96C149.197 139.736 148.76 139.624 148.291 139.624C147.821 139.624 147.384 139.736 146.979 139.96C146.584 140.184 146.269 140.52 146.035 140.968C145.8 141.405 145.683 141.944 145.683 142.584C145.683 143.533 145.923 144.269 146.403 144.792C146.893 145.304 147.507 145.56 148.243 145.56Z" fill="#372948"/>
<path d="M74.7368 76L97.8947 40L121.053 76H74.7368ZM121.053 120C115.789 120 111.316 118.251 107.634 114.752C103.951 111.253 102.108 107.003 102.105 102C102.102 96.9973 103.945 92.748 107.634 89.252C111.322 85.756 115.795 84.0053 121.053 84C126.31 83.9946 130.785 85.7453 134.476 89.252C138.167 92.7586 140.008 97.008 140 102C139.992 106.992 138.15 111.243 134.476 114.752C130.801 118.261 126.327 120.011 121.053 120ZM60 118V86H93.6842V118H60Z" fill="#372948"/>
</svg>
