<svg width="38" height="38" viewBox="0 0 38 38" fill="none" xmlns="http://www.w3.org/2000/svg">
<path d="M26.0521 20.0417L26.0521 17.9167L15.8187 17.9167L20.1937 13.5417L18.7604 12.1083L11.9083 18.9604L18.7604 25.85L20.1937 24.4167L15.8187 20.0417L26.0521 20.0417ZM37.75 18.9937C37.75 21.5854 37.2583 24.0229 36.275 26.3062C35.2903 28.5882 33.9542 30.5736 32.2667 32.2625C30.5806 33.9514 28.5972 35.2882 26.3167 36.2729C24.0361 37.2576 21.5993 37.75 19.0063 37.75C16.4146 37.75 13.9771 37.2583 11.6937 36.275C9.41181 35.2903 7.42639 33.9542 5.7375 32.2667C4.04861 30.5806 2.71181 28.5972 1.72708 26.3167C0.742361 24.0361 0.249999 21.5993 0.249999 19.0063C0.249999 16.4146 0.741665 13.9771 1.725 11.6938C2.70972 9.41181 4.04583 7.42639 5.73333 5.7375C7.41944 4.04861 9.40278 2.71181 11.6833 1.72708C13.9639 0.742362 16.4007 0.249999 18.9937 0.249999C21.5854 0.249999 24.0229 0.741668 26.3062 1.725C28.5882 2.70972 30.5736 4.04583 32.2625 5.73333C33.9514 7.41944 35.2882 9.40278 36.2729 11.6833C37.2576 13.9639 37.75 16.4007 37.75 18.9937Z" fill="#D6589F"/>
</svg>
