<svg width="73" height="23" viewBox="0 0 73 23" fill="none" xmlns="http://www.w3.org/2000/svg">
<path d="M8.12 22.21C6.72 22.21 5.46 21.97 4.34 21.49C3.22 20.99 2.34 20.29 1.7 19.39C1.06 18.49 0.74 17.44 0.74 16.24H4.4C4.48 17.14 4.83 17.88 5.45 18.46C6.09 19.04 6.98 19.33 8.12 19.33C9.3 19.33 10.22 19.05 10.88 18.49C11.54 17.91 11.87 17.17 11.87 16.27C11.87 15.57 11.66 15 11.24 14.56C10.84 14.12 10.33 13.78 9.71 13.54C9.11 13.3 8.27 13.04 7.19 12.76C5.83 12.4 4.72 12.04 3.86 11.68C3.02 11.3 2.3 10.72 1.7 9.94C1.1 9.16 0.8 8.12 0.8 6.82C0.8 5.62 1.1 4.57 1.7 3.67C2.3 2.77 3.14 2.08 4.22 1.6C5.3 1.12 6.55 0.879998 7.97 0.879998C9.99 0.879998 11.64 1.39 12.92 2.41C14.22 3.41 14.94 4.79 15.08 6.55H11.3C11.24 5.79 10.88 5.14 10.22 4.6C9.56 4.06 8.69 3.79 7.61 3.79C6.63 3.79 5.83 4.04 5.21 4.54C4.59 5.04 4.28 5.76 4.28 6.7C4.28 7.34 4.47 7.87 4.85 8.29C5.25 8.69 5.75 9.01 6.35 9.25C6.95 9.49 7.77 9.75 8.81 10.03C10.19 10.41 11.31 10.79 12.17 11.17C13.05 11.55 13.79 12.14 14.39 12.94C15.01 13.72 15.32 14.77 15.32 16.09C15.32 17.15 15.03 18.15 14.45 19.09C13.89 20.03 13.06 20.79 11.96 21.37C10.88 21.93 9.6 22.21 8.12 22.21ZM18.2155 13.66C18.2155 12 18.5555 10.53 19.2355 9.25C19.9355 7.97 20.8755 6.98 22.0555 6.28C23.2555 5.56 24.5755 5.2 26.0155 5.2C27.3155 5.2 28.4455 5.46 29.4055 5.98C30.3855 6.48 31.1655 7.11 31.7455 7.87V5.47H35.1955V22H31.7455V19.54C31.1655 20.32 30.3755 20.97 29.3755 21.49C28.3755 22.01 27.2355 22.27 25.9555 22.27C24.5355 22.27 23.2355 21.91 22.0555 21.19C20.8755 20.45 19.9355 19.43 19.2355 18.13C18.5555 16.81 18.2155 15.32 18.2155 13.66ZM31.7455 13.72C31.7455 12.58 31.5055 11.59 31.0255 10.75C30.5655 9.91 29.9555 9.27 29.1955 8.83C28.4355 8.39 27.6155 8.17 26.7355 8.17C25.8555 8.17 25.0355 8.39 24.2755 8.83C23.5155 9.25 22.8955 9.88 22.4155 10.72C21.9555 11.54 21.7255 12.52 21.7255 13.66C21.7255 14.8 21.9555 15.8 22.4155 16.66C22.8955 17.52 23.5155 18.18 24.2755 18.64C25.0555 19.08 25.8755 19.3 26.7355 19.3C27.6155 19.3 28.4355 19.08 29.1955 18.64C29.9555 18.2 30.5655 17.56 31.0255 16.72C31.5055 15.86 31.7455 14.86 31.7455 13.72ZM46.0775 18.94L50.7575 5.47H54.3875L48.0875 22H44.0075L37.7375 5.47H41.3975L46.0775 18.94ZM72.1227 13.33C72.1227 13.95 72.0827 14.51 72.0027 15.01H59.3727C59.4727 16.33 59.9627 17.39 60.8427 18.19C61.7227 18.99 62.8027 19.39 64.0827 19.39C65.9227 19.39 67.2227 18.62 67.9827 17.08H71.6727C71.1727 18.6 70.2627 19.85 68.9427 20.83C67.6427 21.79 66.0227 22.27 64.0827 22.27C62.5027 22.27 61.0827 21.92 59.8227 21.22C58.5827 20.5 57.6027 19.5 56.8827 18.22C56.1827 16.92 55.8327 15.42 55.8327 13.72C55.8327 12.02 56.1727 10.53 56.8527 9.25C57.5527 7.95 58.5227 6.95 59.7627 6.25C61.0227 5.55 62.4627 5.2 64.0827 5.2C65.6427 5.2 67.0327 5.54 68.2527 6.22C69.4727 6.9 70.4227 7.86 71.1027 9.1C71.7827 10.32 72.1227 11.73 72.1227 13.33ZM68.5527 12.25C68.5327 10.99 68.0827 9.98 67.2027 9.22C66.3227 8.46 65.2327 8.08 63.9327 8.08C62.7527 8.08 61.7427 8.46 60.9027 9.22C60.0627 9.96 59.5627 10.97 59.4027 12.25H68.5527Z" fill="white"/>
</svg>
