<svg width="77" height="33" viewBox="0 0 77 33" fill="none" xmlns="http://www.w3.org/2000/svg">
<path d="M3.67 21.24H10.72V24H0.25V3.15H3.67V21.24ZM20.7501 24.27C19.1901 24.27 17.7801 23.92 16.5201 23.22C15.2601 22.5 14.2701 21.5 13.5501 20.22C12.8301 18.92 12.4701 17.42 12.4701 15.72C12.4701 14.04 12.8401 12.55 13.5801 11.25C14.3201 9.95 15.3301 8.95 16.6101 8.25C17.8901 7.55 19.3201 7.2 20.9001 7.2C22.4801 7.2 23.9101 7.55 25.1901 8.25C26.4701 8.95 27.4801 9.95 28.2201 11.25C28.9601 12.55 29.3301 14.04 29.3301 15.72C29.3301 17.4 28.9501 18.89 28.1901 20.19C27.4301 21.49 26.3901 22.5 25.0701 23.22C23.7701 23.92 22.3301 24.27 20.7501 24.27ZM20.7501 21.3C21.6301 21.3 22.4501 21.09 23.2101 20.67C23.9901 20.25 24.6201 19.62 25.1001 18.78C25.5801 17.94 25.8201 16.92 25.8201 15.72C25.8201 14.52 25.5901 13.51 25.1301 12.69C24.6701 11.85 24.0601 11.22 23.3001 10.8C22.5401 10.38 21.7201 10.17 20.8401 10.17C19.9601 10.17 19.1401 10.38 18.3801 10.8C17.6401 11.22 17.0501 11.85 16.6101 12.69C16.1701 13.51 15.9501 14.52 15.9501 15.72C15.9501 17.5 16.4001 18.88 17.3001 19.86C18.2201 20.82 19.3701 21.3 20.7501 21.3ZM39.3709 7.2C40.6509 7.2 41.7809 7.46 42.7609 7.98C43.7609 8.48 44.5409 9.11 45.1009 9.87V7.47H48.5509V24.27C48.5509 25.79 48.2309 27.14 47.5909 28.32C46.9509 29.52 46.0209 30.46 44.8009 31.14C43.6009 31.82 42.1609 32.16 40.4809 32.16C38.2409 32.16 36.3809 31.63 34.9009 30.57C33.4209 29.53 32.5809 28.11 32.3809 26.31H35.7709C36.0309 27.17 36.5809 27.86 37.4209 28.38C38.2809 28.92 39.3009 29.19 40.4809 29.19C41.8609 29.19 42.9709 28.77 43.8109 27.93C44.6709 27.09 45.1009 25.87 45.1009 24.27V21.51C44.5209 22.29 43.7309 22.95 42.7309 23.49C41.7509 24.01 40.6309 24.27 39.3709 24.27C37.9309 24.27 36.6109 23.91 35.4109 23.19C34.2309 22.45 33.2909 21.43 32.5909 20.13C31.9109 18.81 31.5709 17.32 31.5709 15.66C31.5709 14 31.9109 12.53 32.5909 11.25C33.2909 9.97 34.2309 8.98 35.4109 8.28C36.6109 7.56 37.9309 7.2 39.3709 7.2ZM45.1009 15.72C45.1009 14.58 44.8609 13.59 44.3809 12.75C43.9209 11.91 43.3109 11.27 42.5509 10.83C41.7909 10.39 40.9709 10.17 40.0909 10.17C39.2109 10.17 38.3909 10.39 37.6309 10.83C36.8709 11.25 36.2509 11.88 35.7709 12.72C35.3109 13.54 35.0809 14.52 35.0809 15.66C35.0809 16.8 35.3109 17.8 35.7709 18.66C36.2509 19.52 36.8709 20.18 37.6309 20.64C38.4109 21.08 39.2309 21.3 40.0909 21.3C40.9709 21.3 41.7909 21.08 42.5509 20.64C43.3109 20.2 43.9209 19.56 44.3809 18.72C44.8609 17.86 45.1009 16.86 45.1009 15.72ZM54.783 5.28C54.163 5.28 53.643 5.07 53.223 4.65C52.803 4.23 52.593 3.71 52.593 3.09C52.593 2.47 52.803 1.95 53.223 1.53C53.643 1.11 54.163 0.899999 54.783 0.899999C55.383 0.899999 55.893 1.11 56.313 1.53C56.733 1.95 56.943 2.47 56.943 3.09C56.943 3.71 56.733 4.23 56.313 4.65C55.893 5.07 55.383 5.28 54.783 5.28ZM56.463 7.47V24H53.043V7.47H56.463ZM69.2931 7.2C70.5931 7.2 71.7531 7.47 72.7731 8.01C73.8131 8.55 74.6231 9.35 75.2031 10.41C75.7831 11.47 76.0731 12.75 76.0731 14.25V24H72.6831V14.76C72.6831 13.28 72.3131 12.15 71.5731 11.37C70.8331 10.57 69.8231 10.17 68.5431 10.17C67.2631 10.17 66.2431 10.57 65.4831 11.37C64.7431 12.15 64.3731 13.28 64.3731 14.76V24H60.9531V7.47H64.3731V9.36C64.9331 8.68 65.6431 8.15 66.5031 7.77C67.3831 7.39 68.3131 7.2 69.2931 7.2Z" fill="white"/>
</svg>
