<svg width="85" height="24" viewBox="0 0 85 24" fill="none" xmlns="http://www.w3.org/2000/svg">
<path d="M15.36 13.61H9.3V19.82H6.12V13.61H0.0600002V10.73H6.12V4.52H9.3V10.73H15.36V13.61ZM27.319 14.66C27.319 13 27.659 11.53 28.339 10.25C29.039 8.97 29.979 7.98 31.159 7.28C32.359 6.56 33.679 6.2 35.119 6.2C36.419 6.2 37.549 6.46 38.509 6.98C39.489 7.48 40.269 8.11 40.849 8.87V6.47H44.299V23H40.849V20.54C40.269 21.32 39.479 21.97 38.479 22.49C37.479 23.01 36.339 23.27 35.059 23.27C33.639 23.27 32.339 22.91 31.159 22.19C29.979 21.45 29.039 20.43 28.339 19.13C27.659 17.81 27.319 16.32 27.319 14.66ZM40.849 14.72C40.849 13.58 40.609 12.59 40.129 11.75C39.669 10.91 39.059 10.27 38.299 9.83C37.539 9.39 36.719 9.17 35.839 9.17C34.959 9.17 34.139 9.39 33.379 9.83C32.619 10.25 31.999 10.88 31.519 11.72C31.059 12.54 30.829 13.52 30.829 14.66C30.829 15.8 31.059 16.8 31.519 17.66C31.999 18.52 32.619 19.18 33.379 19.64C34.159 20.08 34.979 20.3 35.839 20.3C36.719 20.3 37.539 20.08 38.299 19.64C39.059 19.2 39.669 18.56 40.129 17.72C40.609 16.86 40.849 15.86 40.849 14.72ZM47.651 14.66C47.651 13 47.991 11.53 48.671 10.25C49.371 8.97 50.311 7.98 51.491 7.28C52.691 6.56 54.021 6.2 55.481 6.2C56.561 6.2 57.621 6.44 58.661 6.92C59.721 7.38 60.561 8 61.181 8.78V0.8H64.631V23H61.181V20.51C60.621 21.31 59.841 21.97 58.841 22.49C57.861 23.01 56.731 23.27 55.451 23.27C54.011 23.27 52.691 22.91 51.491 22.19C50.311 21.45 49.371 20.43 48.671 19.13C47.991 17.81 47.651 16.32 47.651 14.66ZM61.181 14.72C61.181 13.58 60.941 12.59 60.461 11.75C60.001 10.91 59.391 10.27 58.631 9.83C57.871 9.39 57.051 9.17 56.171 9.17C55.291 9.17 54.471 9.39 53.711 9.83C52.951 10.25 52.331 10.88 51.851 11.72C51.391 12.54 51.161 13.52 51.161 14.66C51.161 15.8 51.391 16.8 51.851 17.66C52.331 18.52 52.951 19.18 53.711 19.64C54.491 20.08 55.311 20.3 56.171 20.3C57.051 20.3 57.871 20.08 58.631 19.64C59.391 19.2 60.001 18.56 60.461 17.72C60.941 16.86 61.181 15.86 61.181 14.72ZM67.983 14.66C67.983 13 68.323 11.53 69.003 10.25C69.703 8.97 70.643 7.98 71.823 7.28C73.023 6.56 74.353 6.2 75.813 6.2C76.893 6.2 77.953 6.44 78.993 6.92C80.053 7.38 80.893 8 81.513 8.78V0.8H84.963V23H81.513V20.51C80.953 21.31 80.173 21.97 79.173 22.49C78.193 23.01 77.063 23.27 75.783 23.27C74.343 23.27 73.023 22.91 71.823 22.19C70.643 21.45 69.703 20.43 69.003 19.13C68.323 17.81 67.983 16.32 67.983 14.66ZM81.513 14.72C81.513 13.58 81.273 12.59 80.793 11.75C80.333 10.91 79.723 10.27 78.963 9.83C78.203 9.39 77.383 9.17 76.503 9.17C75.623 9.17 74.803 9.39 74.043 9.83C73.283 10.25 72.663 10.88 72.183 11.72C71.723 12.54 71.493 13.52 71.493 14.66C71.493 15.8 71.723 16.8 72.183 17.66C72.663 18.52 73.283 19.18 74.043 19.64C74.823 20.08 75.643 20.3 76.503 20.3C77.383 20.3 78.203 20.08 78.963 19.64C79.723 19.2 80.333 18.56 80.793 17.72C81.273 16.86 81.513 15.86 81.513 14.72Z" fill="white"/>
</svg>
