<svg width="149" height="45" viewBox="0 0 149 45" fill="none" xmlns="http://www.w3.org/2000/svg">
<path d="M55.4 24.33C55.4 24.95 55.36 25.51 55.28 26.01H42.65C42.75 27.33 43.24 28.39 44.12 29.19C45 29.99 46.08 30.39 47.36 30.39C49.2 30.39 50.5 29.62 51.26 28.08H54.95C54.45 29.6 53.54 30.85 52.22 31.83C50.92 32.79 49.3 33.27 47.36 33.27C45.78 33.27 44.36 32.92 43.1 32.22C41.86 31.5 40.88 30.5 40.16 29.22C39.46 27.92 39.11 26.42 39.11 24.72C39.11 23.02 39.45 21.53 40.13 20.25C40.83 18.95 41.8 17.95 43.04 17.25C44.3 16.55 45.74 16.2 47.36 16.2C48.92 16.2 50.31 16.54 51.53 17.22C52.75 17.9 53.7 18.86 54.38 20.1C55.06 21.32 55.4 22.73 55.4 24.33ZM51.83 23.25C51.81 21.99 51.36 20.98 50.48 20.22C49.6 19.46 48.51 19.08 47.21 19.08C46.03 19.08 45.02 19.46 44.18 20.22C43.34 20.96 42.84 21.97 42.68 23.25H51.83ZM65.8456 24.63L71.1856 33H67.3156L63.7456 27.39L60.3856 33H56.8156L62.1556 24.87L56.8156 16.47H60.6856L64.2556 22.08L67.6156 16.47H71.1856L65.8456 24.63ZM77.1563 18.9C77.7363 18.14 78.5263 17.5 79.5263 16.98C80.5263 16.46 81.6563 16.2 82.9163 16.2C84.3563 16.2 85.6663 16.56 86.8463 17.28C88.0463 17.98 88.9863 18.97 89.6663 20.25C90.3463 21.53 90.6863 23 90.6863 24.66C90.6863 26.32 90.3463 27.81 89.6663 29.13C88.9863 30.43 88.0463 31.45 86.8463 32.19C85.6663 32.91 84.3563 33.27 82.9163 33.27C81.6563 33.27 80.5363 33.02 79.5563 32.52C78.5763 32 77.7763 31.36 77.1563 30.6V40.86H73.7363V16.47H77.1563V18.9ZM87.2063 24.66C87.2063 23.52 86.9663 22.54 86.4863 21.72C86.0263 20.88 85.4063 20.25 84.6263 19.83C83.8663 19.39 83.0463 19.17 82.1663 19.17C81.3063 19.17 80.4863 19.39 79.7063 19.83C78.9463 20.27 78.3263 20.91 77.8463 21.75C77.3863 22.59 77.1563 23.58 77.1563 24.72C77.1563 25.86 77.3863 26.86 77.8463 27.72C78.3263 28.56 78.9463 29.2 79.7063 29.64C80.4863 30.08 81.3063 30.3 82.1663 30.3C83.0463 30.3 83.8663 30.08 84.6263 29.64C85.4063 29.18 86.0263 28.52 86.4863 27.66C86.9663 26.8 87.2063 25.8 87.2063 24.66ZM97.4884 10.8V33H94.0684V10.8H97.4884ZM109.149 33.27C107.589 33.27 106.179 32.92 104.919 32.22C103.659 31.5 102.669 30.5 101.949 29.22C101.229 27.92 100.869 26.42 100.869 24.72C100.869 23.04 101.239 21.55 101.979 20.25C102.719 18.95 103.729 17.95 105.009 17.25C106.289 16.55 107.719 16.2 109.299 16.2C110.879 16.2 112.309 16.55 113.589 17.25C114.869 17.95 115.879 18.95 116.619 20.25C117.359 21.55 117.729 23.04 117.729 24.72C117.729 26.4 117.349 27.89 116.589 29.19C115.829 30.49 114.789 31.5 113.469 32.22C112.169 32.92 110.729 33.27 109.149 33.27ZM109.149 30.3C110.029 30.3 110.849 30.09 111.609 29.67C112.389 29.25 113.019 28.62 113.499 27.78C113.979 26.94 114.219 25.92 114.219 24.72C114.219 23.52 113.989 22.51 113.529 21.69C113.069 20.85 112.459 20.22 111.699 19.8C110.939 19.38 110.119 19.17 109.239 19.17C108.359 19.17 107.539 19.38 106.779 19.8C106.039 20.22 105.449 20.85 105.009 21.69C104.569 22.51 104.349 23.52 104.349 24.72C104.349 26.5 104.799 27.88 105.699 28.86C106.619 29.82 107.769 30.3 109.149 30.3ZM124.529 18.87C125.029 18.03 125.689 17.38 126.509 16.92C127.349 16.44 128.339 16.2 129.479 16.2V19.74H128.609C127.269 19.74 126.249 20.08 125.549 20.76C124.869 21.44 124.529 22.62 124.529 24.3V33H121.109V16.47H124.529V18.87ZM147.773 24.33C147.773 24.95 147.733 25.51 147.653 26.01H135.023C135.123 27.33 135.613 28.39 136.493 29.19C137.373 29.99 138.453 30.39 139.733 30.39C141.573 30.39 142.873 29.62 143.633 28.08H147.323C146.823 29.6 145.913 30.85 144.593 31.83C143.293 32.79 141.673 33.27 139.733 33.27C138.153 33.27 136.733 32.92 135.473 32.22C134.233 31.5 133.253 30.5 132.533 29.22C131.833 27.92 131.483 26.42 131.483 24.72C131.483 23.02 131.823 21.53 132.503 20.25C133.203 18.95 134.173 17.95 135.413 17.25C136.673 16.55 138.113 16.2 139.733 16.2C141.293 16.2 142.683 16.54 143.903 17.22C145.123 17.9 146.073 18.86 146.753 20.1C147.433 21.32 147.773 22.73 147.773 24.33ZM144.203 23.25C144.183 21.99 143.733 20.98 142.853 20.22C141.973 19.46 140.883 19.08 139.583 19.08C138.403 19.08 137.393 19.46 136.553 20.22C135.713 20.96 135.213 21.97 135.053 23.25H144.203Z" fill="white"/>
<path d="M12 35C10.6167 35 9.31667 34.7373 8.1 34.212C6.88334 33.6867 5.825 32.9743 4.925 32.075C4.025 31.1757 3.31267 30.1173 2.788 28.9C2.26333 27.6827 2.00067 26.3827 2 25C1.99933 23.6173 2.262 22.3173 2.788 21.1C3.314 19.8827 4.02633 18.8243 4.925 17.925C5.82367 17.0257 6.882 16.3133 8.1 15.788C9.318 15.2627 10.618 15 12 15C14.4333 15 16.5627 15.7627 18.388 17.288C20.2133 18.8133 21.3507 20.7257 21.8 23.025H19.75C19.4333 21.8083 18.8623 20.721 18.037 19.763C17.2117 18.805 16.1993 18.084 15 17.6V18C15 18.55 14.8043 19.021 14.413 19.413C14.0217 19.805 13.5507 20.0007 13 20H11V22C11 22.2833 10.904 22.521 10.712 22.713C10.52 22.905 10.2827 23.0007 10 23H8V25H10V28H9L4.2 23.2C4.15 23.5 4.10433 23.8 4.063 24.1C4.02167 24.4 4.00067 24.7 4 25C4 27.1833 4.76667 29.0583 6.3 30.625C7.83333 32.1917 9.73333 32.9833 12 33V35ZM21.1 34.5L17.9 31.3C17.55 31.5 17.175 31.6667 16.775 31.8C16.375 31.9333 15.95 32 15.5 32C14.25 32 13.1877 31.5627 12.313 30.688C11.4383 29.8133 11.0007 28.7507 11 27.5C10.9993 26.2493 11.437 25.187 12.313 24.313C13.189 23.439 14.2513 23.0013 15.5 23C16.7487 22.9987 17.8113 23.4363 18.688 24.313C19.5647 25.1897 20.002 26.252 20 27.5C20 27.95 19.9333 28.375 19.8 28.775C19.6667 29.175 19.5 29.55 19.3 29.9L22.5 33.1L21.1 34.5ZM15.5 30C16.2 30 16.7917 29.7583 17.275 29.275C17.7583 28.7917 18 28.2 18 27.5C18 26.8 17.7583 26.2083 17.275 25.725C16.7917 25.2417 16.2 25 15.5 25C14.8 25 14.2083 25.2417 13.725 25.725C13.2417 26.2083 13 26.8 13 27.5C13 28.2 13.2417 28.7917 13.725 29.275C14.2083 29.7583 14.8 30 15.5 30Z" fill="white"/>
</svg>
