<svg width="60" height="60" viewBox="0 0 60 60" fill="none" xmlns="http://www.w3.org/2000/svg">
<path d="M37.4949 12.5C42.0857 12.4978 46.4935 14.2996 49.7682 17.517C53.0429 20.7344 54.9221 25.1098 55.0008 29.7C55.0796 34.2901 53.3514 38.7273 50.189 42.0551C47.0265 45.383 42.6831 47.3348 38.0949 47.49L37.4949 47.5H22.5049C17.9141 47.5022 13.5062 45.7004 10.2316 42.483C6.95688 39.2656 5.07762 34.8902 4.99891 30.3C4.9202 25.7099 6.64834 21.2727 9.81078 17.9449C12.9732 14.617 17.3167 12.6652 21.9049 12.51L22.5024 12.5H37.4949ZM37.4949 16.25H22.5049C18.901 16.2424 15.4382 17.65 12.8617 20.1699C10.2852 22.6898 8.80108 26.1205 8.72866 29.7237C8.65625 33.3268 10.0014 36.8144 12.4745 39.4358C14.9476 42.0572 18.3511 43.6028 21.9524 43.74L22.5049 43.75H37.4949C41.0988 43.7576 44.5616 42.35 47.1381 39.8301C49.7145 37.3102 51.1987 33.8795 51.2711 30.2763C51.3435 26.6732 49.9984 23.1856 47.5253 20.5642C45.0521 17.9428 41.6487 16.3972 38.0474 16.26L37.4949 16.25ZM19.9999 22.5C20.4972 22.5 20.9741 22.6975 21.3257 23.0492C21.6773 23.4008 21.8749 23.8777 21.8749 24.375V28.12H25.6249C26.1222 28.12 26.5991 28.3175 26.9507 28.6692C27.3023 29.0208 27.4999 29.4977 27.4999 29.995C27.4999 30.4923 27.3023 30.9692 26.9507 31.3208C26.5991 31.6725 26.1222 31.87 25.6249 31.87H21.8749V35.625C21.8749 36.1223 21.6773 36.5992 21.3257 36.9508C20.9741 37.3025 20.4972 37.5 19.9999 37.5C19.5026 37.5 19.0257 37.3025 18.6741 36.9508C18.3224 36.5992 18.1249 36.1223 18.1249 35.625V31.87H14.3749C14.1287 31.87 13.8848 31.8215 13.6573 31.7273C13.4299 31.633 13.2232 31.4949 13.0491 31.3208C12.8749 31.1467 12.7368 30.94 12.6426 30.7125C12.5484 30.485 12.4999 30.2412 12.4999 29.995C12.4999 29.7488 12.5484 29.505 12.6426 29.2775C12.7368 29.05 12.8749 28.8433 13.0491 28.6692C13.2232 28.4951 13.4299 28.357 13.6573 28.2627C13.8848 28.1685 14.1287 28.12 14.3749 28.12H18.1249V24.375C18.1249 23.8777 18.3224 23.4008 18.6741 23.0492C19.0257 22.6975 19.5026 22.5 19.9999 22.5ZM36.8749 31.25C37.7037 31.25 38.4985 31.5792 39.0846 32.1653C39.6706 32.7513 39.9999 33.5462 39.9999 34.375C39.9999 35.2038 39.6706 35.9987 39.0846 36.5847C38.4985 37.1708 37.7037 37.5 36.8749 37.5C36.0461 37.5 35.2512 37.1708 34.6652 36.5847C34.0791 35.9987 33.7499 35.2038 33.7499 34.375C33.7499 33.5462 34.0791 32.7513 34.6652 32.1653C35.2512 31.5792 36.0461 31.25 36.8749 31.25ZM41.8749 22.5C42.7037 22.5 43.4985 22.8292 44.0846 23.4153C44.6706 24.0013 44.9999 24.7962 44.9999 25.625C44.9999 26.4538 44.6706 27.2487 44.0846 27.8347C43.4985 28.4208 42.7037 28.75 41.8749 28.75C41.0461 28.75 40.2512 28.4208 39.6652 27.8347C39.0791 27.2487 38.7499 26.4538 38.7499 25.625C38.7499 24.7962 39.0791 24.0013 39.6652 23.4153C40.2512 22.8292 41.0461 22.5 41.8749 22.5Z" fill="#372948"/>
</svg>
