<svg width="50" height="50" viewBox="0 0 50 50" fill="none" xmlns="http://www.w3.org/2000/svg">
<path d="M25 35.4167C23.895 35.4167 22.8352 34.9777 22.0538 34.1963C21.2724 33.4149 20.8334 32.3551 20.8334 31.25C20.8334 28.9375 22.6875 27.0833 25 27.0833C26.1051 27.0833 27.1649 27.5223 27.9463 28.3037C28.7277 29.0851 29.1667 30.1449 29.1667 31.25C29.1667 32.3551 28.7277 33.4149 27.9463 34.1963C27.1649 34.9777 26.1051 35.4167 25 35.4167ZM37.5 41.6667V20.8333H12.5V41.6667H37.5ZM37.5 16.6667C38.6051 16.6667 39.6649 17.1056 40.4463 17.8871C41.2277 18.6685 41.6667 19.7283 41.6667 20.8333V41.6667C41.6667 42.7717 41.2277 43.8315 40.4463 44.6129C39.6649 45.3943 38.6051 45.8333 37.5 45.8333H12.5C11.395 45.8333 10.3352 45.3943 9.55376 44.6129C8.77236 43.8315 8.33337 42.7717 8.33337 41.6667V20.8333C8.33337 18.5208 10.1875 16.6667 12.5 16.6667H14.5834V12.5C14.5834 9.73732 15.6808 7.0878 17.6343 5.1343C19.5878 3.1808 22.2374 2.08333 25 2.08333C26.368 2.08333 27.7225 2.35276 28.9863 2.87625C30.2501 3.39974 31.3985 4.16702 32.3657 5.1343C33.333 6.10158 34.1003 7.2499 34.6238 8.51371C35.1473 9.77752 35.4167 11.1321 35.4167 12.5V16.6667H37.5ZM25 6.24999C23.3424 6.24999 21.7527 6.90848 20.5806 8.08058C19.4085 9.25268 18.75 10.8424 18.75 12.5V16.6667H31.25V12.5C31.25 10.8424 30.5916 9.25268 29.4195 8.08058C28.2474 6.90848 26.6576 6.24999 25 6.24999Z" fill="#372948"/>
</svg>
