<svg width="60" height="60" viewBox="0 0 60 60" fill="none" xmlns="http://www.w3.org/2000/svg">
<path d="M32.675 26.025C34.1936 23.9032 35.0101 21.3593 35.0101 18.75C35.0101 16.1407 34.1936 13.5968 32.675 11.475C34.0963 10.5049 35.7792 9.99041 37.5 9.99999C39.8206 9.99999 42.0462 10.9219 43.6872 12.5628C45.3281 14.2038 46.25 16.4293 46.25 18.75C46.25 21.0706 45.3281 23.2962 43.6872 24.9372C42.0462 26.5781 39.8206 27.5 37.5 27.5C35.7792 27.5096 34.0963 26.9951 32.675 26.025ZM13.75 18.75C13.75 17.0194 14.2632 15.3277 15.2246 13.8888C16.1861 12.4498 17.5527 11.3283 19.1515 10.666C20.7504 10.0038 22.5097 9.8305 24.207 10.1681C25.9044 10.5057 27.4635 11.3391 28.6872 12.5628C29.9109 13.7865 30.7443 15.3456 31.0819 17.043C31.4195 18.7403 31.2462 20.4996 30.5839 22.0985C29.9217 23.6973 28.8002 25.0639 27.3612 26.0254C25.9223 26.9868 24.2306 27.5 22.5 27.5C20.1794 27.5 17.9538 26.5781 16.3128 24.9372C14.6719 23.2962 13.75 21.0706 13.75 18.75ZM18.75 18.75C18.75 19.4917 18.9699 20.2167 19.382 20.8334C19.794 21.4501 20.3797 21.9307 21.0649 22.2145C21.7502 22.4984 22.5042 22.5726 23.2316 22.4279C23.959 22.2832 24.6272 21.9261 25.1517 21.4016C25.6761 20.8772 26.0333 20.209 26.1779 19.4816C26.3226 18.7542 26.2484 18.0002 25.9645 17.3149C25.6807 16.6297 25.2001 16.044 24.5834 15.632C23.9667 15.2199 23.2417 15 22.5 15C21.5054 15 20.5516 15.3951 19.8483 16.0983C19.1451 16.8016 18.75 17.7554 18.75 18.75ZM40 42.5V47.5H5V42.5C5 42.5 5 32.5 22.5 32.5C40 32.5 40 42.5 40 42.5ZM35 42.5C34.65 40.55 31.675 37.5 22.5 37.5C13.325 37.5 10.175 40.775 10 42.5M39.875 32.5C41.4073 33.6918 42.6601 35.2046 43.5454 36.9322C44.4308 38.6597 44.9273 40.5601 45 42.5V47.5H55V42.5C55 42.5 55 33.425 39.85 32.5H39.875Z" fill="#372948"/>
</svg>
