<svg width="60" height="60" viewBox="0 0 60 60" fill="none" xmlns="http://www.w3.org/2000/svg">
<g clip-path="url(#clip0_191_3360)">
<path d="M26.3 9.73981e-09C26.9733 -4.2013e-05 27.6397 0.135898 28.2591 0.399667C28.8786 0.663436 29.4384 1.0496 29.905 1.535L30.205 1.8775L33.7 6.25H45C46.2614 6.2496 47.4764 6.72602 48.4014 7.58374C49.3263 8.44147 49.8929 9.61711 49.9875 10.875L50 11.25V30C50.0004 31.2614 49.524 32.4764 48.6663 33.4014C47.8085 34.3263 46.6329 34.8929 45.375 34.9875L45 35H40V40C40.0004 41.2614 39.524 42.4764 38.6663 43.4014C37.8085 44.3263 36.6329 44.8929 35.375 44.9875L35 45H5C3.73856 45.0004 2.52358 44.524 1.59863 43.6663C0.673677 42.8085 0.107109 41.6329 0.0125005 40.375L2.5067e-07 40V15C-0.000398948 13.7386 0.476016 12.5236 1.33374 11.5986C2.19147 10.6737 3.36711 10.1071 4.625 10.0125L5 10H10V5C9.9996 3.73856 10.476 2.52358 11.3337 1.59863C12.1915 0.673676 13.3671 0.107108 14.625 0.0125003L15 9.73981e-09H26.3ZM26.3 5H15V10H16.3C17.0494 10.0001 17.7892 10.1686 18.4647 10.4932C19.1402 10.8177 19.7341 11.29 20.2025 11.875L23.7025 16.25H35C36.3261 16.25 37.5979 16.7768 38.5355 17.7145C39.4732 18.6521 40 19.9239 40 21.25V30H45V11.25H33.7C32.9506 11.2499 32.2108 11.0814 31.5353 10.7568C30.8598 10.4323 30.2659 9.96001 29.7975 9.375L26.3 5Z" fill="#372948"/>
</g>
<defs>
<clipPath id="clip0_191_3360">
<rect width="60" height="60" fill="white"/>
</clipPath>
</defs>
</svg>
