<svg width="40" height="45" viewBox="0 0 40 45" fill="none" xmlns="http://www.w3.org/2000/svg">
<g clip-path="url(#clip0_375_25)">
<path d="M29.3334 33H26.6667V30H29.3334V33ZM21.3334 33H24V30H21.3334V33ZM34.6667 33H32V30H34.6667V33Z" fill="#372948"/>
<path fill-rule="evenodd" clip-rule="evenodd" d="M8 18V10.5C8 9.12112 8.24141 7.75574 8.71046 6.48182C9.1795 5.20791 9.86699 4.05039 10.7337 3.07538C11.6004 2.10036 12.6292 1.32694 13.7616 0.799265C14.894 0.27159 16.1077 0 17.3333 0C18.559 0 19.7727 0.27159 20.905 0.799265C22.0374 1.32694 23.0663 2.10036 23.933 3.07538C24.7997 4.05039 25.4872 5.20791 25.9562 6.48182C26.4253 7.75574 26.6667 9.12112 26.6667 10.5V18H30.6667C31.7275 18 32.7449 18.4741 33.4951 19.318C34.2452 20.1619 34.6667 21.3065 34.6667 22.5V24.15C36.1737 24.4943 37.5286 25.4141 38.5018 26.7536C39.475 28.0931 40.0067 29.77 40.0067 31.5C40.0067 33.23 39.475 34.9069 38.5018 36.2464C37.5286 37.5859 36.1737 38.5057 34.6667 38.85V40.5C34.6667 41.6935 34.2452 42.8381 33.4951 43.682C32.7449 44.5259 31.7275 45 30.6667 45H4C2.93913 45 1.92172 44.5259 1.17157 43.682C0.421427 42.8381 0 41.6935 0 40.5L0 22.5C0 21.3065 0.421427 20.1619 1.17157 19.318C1.92172 18.4741 2.93913 18 4 18H8ZM10.6667 10.5C10.6667 8.51088 11.369 6.60322 12.6193 5.1967C13.8695 3.79018 15.5652 3 17.3333 3C19.1014 3 20.7971 3.79018 22.0474 5.1967C23.2976 6.60322 24 8.51088 24 10.5V18H10.6667V10.5ZM22.6667 27C21.6058 27 20.5884 27.4741 19.8382 28.318C19.0881 29.1619 18.6667 30.3065 18.6667 31.5C18.6667 32.6935 19.0881 33.8381 19.8382 34.682C20.5884 35.5259 21.6058 36 22.6667 36H33.3333C34.3942 36 35.4116 35.5259 36.1618 34.682C36.9119 33.8381 37.3333 32.6935 37.3333 31.5C37.3333 30.3065 36.9119 29.1619 36.1618 28.318C35.4116 27.4741 34.3942 27 33.3333 27H22.6667Z" fill="#372948"/>
</g>
<defs>
<clipPath id="clip0_375_25">
<rect width="40" height="45" fill="white"/>
</clipPath>
</defs>
</svg>
