<svg width="50" height="50" viewBox="0 0 50 50" fill="none" xmlns="http://www.w3.org/2000/svg">
<path d="M31.25 29.1667C25.6875 29.1667 14.5833 31.9375 14.5833 37.5V41.6667H47.9166V37.5C47.9166 31.9375 36.8125 29.1667 31.25 29.1667ZM12.5 20.8333V14.5833H8.33331V20.8333H2.08331V25H8.33331V31.25H12.5V25H18.75V20.8333M31.25 25C33.4601 25 35.5797 24.122 37.1425 22.5592C38.7053 20.9964 39.5833 18.8768 39.5833 16.6667C39.5833 14.4565 38.7053 12.3369 37.1425 10.7741C35.5797 9.21132 33.4601 8.33334 31.25 8.33334C29.0398 8.33334 26.9202 9.21132 25.3574 10.7741C23.7946 12.3369 22.9166 14.4565 22.9166 16.6667C22.9166 18.8768 23.7946 20.9964 25.3574 22.5592C26.9202 24.122 29.0398 25 31.25 25Z" fill="white"/>
</svg>
