<svg width="22" height="22" viewBox="0 0 22 22" fill="none" xmlns="http://www.w3.org/2000/svg">
<path d="M20.1455 13.9219C20.2132 14.0395 20.2571 14.1692 20.2746 14.3038C20.2922 14.4384 20.2831 14.5751 20.2478 14.7061C20.2125 14.8371 20.1518 14.9599 20.069 15.0675C19.9863 15.175 19.8832 15.2653 19.7656 15.333C19.648 15.4007 19.5182 15.4446 19.3837 15.4621C19.2491 15.4797 19.1124 15.4706 18.9814 15.4353C18.8504 15.4 18.7276 15.3393 18.62 15.2566C18.5124 15.1738 18.4222 15.0707 18.3545 14.9531L16.9056 12.418C16.0971 12.9266 15.2255 13.327 14.3129 13.6091L14.7675 16.3281C14.8122 16.5979 14.748 16.8743 14.5889 17.0967C14.4299 17.3191 14.189 17.4692 13.9193 17.5141C13.8626 17.5242 13.805 17.529 13.7474 17.5287C13.5039 17.5284 13.2683 17.442 13.0824 17.2847C12.8965 17.1274 12.7722 16.9094 12.7316 16.6693L12.2891 14.0224C11.4306 14.1175 10.5642 14.1175 9.70577 14.0224L9.26749 16.6719C9.22685 16.9123 9.10235 17.1305 8.91607 17.2878C8.7298 17.4452 8.49381 17.5314 8.24999 17.5312C8.19237 17.5316 8.13484 17.5267 8.07811 17.5166C7.94454 17.4941 7.81671 17.4456 7.70191 17.3736C7.58712 17.3017 7.48762 17.2079 7.40909 17.0976C7.33057 16.9872 7.27455 16.8624 7.24425 16.7304C7.21395 16.5984 7.20995 16.4617 7.23249 16.3281L7.6871 13.6022C6.77453 13.3201 5.90286 12.9197 5.09436 12.4111L3.64546 14.9531C3.57774 15.0707 3.48753 15.1738 3.37997 15.2566C3.27241 15.3393 3.14961 15.4 3.01858 15.4353C2.88754 15.4706 2.75085 15.4797 2.61629 15.4621C2.48174 15.4446 2.35196 15.4007 2.23436 15.333C2.11677 15.2653 2.01366 15.175 1.93093 15.0675C1.8482 14.9599 1.78746 14.8371 1.75219 14.7061C1.71692 14.5751 1.7078 14.4384 1.72536 14.3038C1.74292 14.1692 1.78681 14.0395 1.85452 13.9219L3.43749 11.159C2.90103 10.6744 2.40363 10.1483 1.94991 9.58547C1.78976 9.37187 1.71868 9.10448 1.75164 8.83955C1.78459 8.57462 1.919 8.33279 2.1266 8.16494C2.3342 7.99708 2.5988 7.91627 2.86476 7.9395C3.13072 7.96274 3.3773 8.08821 3.55264 8.28953C4.93108 9.99625 7.34249 12.0312 11 12.0312C14.6575 12.0312 17.0689 9.99625 18.4473 8.28953C18.6198 8.0788 18.8687 7.94485 19.1396 7.91694C19.4105 7.88902 19.6814 7.96939 19.8933 8.14051C20.1052 8.31163 20.2407 8.5596 20.2704 8.83032C20.3001 9.10103 20.2215 9.37249 20.0518 9.58547C19.5975 10.1483 19.0995 10.6745 18.5625 11.159L20.1455 13.9219Z" fill="#372948"/>
</svg>
