<svg width="30" height="22" viewBox="0 0 30 22" fill="none" xmlns="http://www.w3.org/2000/svg">
<path fill-rule="evenodd" clip-rule="evenodd" d="M7.5 0.625H22.5C24.4891 0.625 26.3968 1.41518 27.8033 2.8217C29.2098 4.22822 30 6.13588 30 8.125V13.75C30 15.7391 29.2098 17.6468 27.8033 19.0533C26.3968 20.4598 24.4891 21.25 22.5 21.25H7.5C5.51088 21.25 3.60322 20.4598 2.1967 19.0533C0.790176 17.6468 0 15.7391 0 13.75V8.125C0 6.13588 0.790176 4.22822 2.1967 2.8217C3.60322 1.41518 5.51088 0.625 7.5 0.625ZM7.5 2.5C6.00816 2.5 4.57742 3.09263 3.52252 4.14752C2.46763 5.20242 1.875 6.63316 1.875 8.125V13.75C1.875 15.2418 2.46763 16.6726 3.52252 17.7275C4.57742 18.7824 6.00816 19.375 7.5 19.375H22.5C23.9918 19.375 25.4226 18.7824 26.4775 17.7275C27.5324 16.6726 28.125 15.2418 28.125 13.75V8.125C28.125 6.63316 27.5324 5.20242 26.4775 4.14752C25.4226 3.09263 23.9918 2.5 22.5 2.5H7.5Z" fill="#372948"/>
<path d="M10.3125 6.25C10.0639 6.25 9.8254 6.34877 9.64959 6.52459C9.47377 6.7004 9.375 6.93886 9.375 7.1875V10H6.5625C6.31386 10 6.0754 10.0988 5.89959 10.2746C5.72377 10.4504 5.625 10.6889 5.625 10.9375C5.625 11.1861 5.72377 11.4246 5.89959 11.6004C6.0754 11.7762 6.31386 11.875 6.5625 11.875H9.375V14.6875C9.375 14.9361 9.47377 15.1746 9.64959 15.3504C9.8254 15.5262 10.0639 15.625 10.3125 15.625C10.5611 15.625 10.7996 15.5262 10.9754 15.3504C11.1512 15.1746 11.25 14.9361 11.25 14.6875V11.875H14.0625C14.3111 11.875 14.5496 11.7762 14.7254 11.6004C14.9012 11.4246 15 11.1861 15 10.9375C15 10.6889 14.9012 10.4504 14.7254 10.2746C14.5496 10.0988 14.3111 10 14.0625 10H11.25V7.1875C11.25 6.93886 11.1512 6.7004 10.9754 6.52459C10.7996 6.34877 10.5611 6.25 10.3125 6.25ZM24.375 8.125C24.375 8.62228 24.1775 9.09919 23.8258 9.45082C23.4742 9.80246 22.9973 10 22.5 10C22.0027 10 21.5258 9.80246 21.1742 9.45082C20.8225 9.09919 20.625 8.62228 20.625 8.125C20.625 7.62772 20.8225 7.15081 21.1742 6.79918C21.5258 6.44754 22.0027 6.25 22.5 6.25C22.9973 6.25 23.4742 6.44754 23.8258 6.79918C24.1775 7.15081 24.375 7.62772 24.375 8.125ZM22.5 13.75C22.5 14.2473 22.3025 14.7242 21.9508 15.0758C21.5992 15.4275 21.1223 15.625 20.625 15.625C20.1277 15.625 19.6508 15.4275 19.2992 15.0758C18.9475 14.7242 18.75 14.2473 18.75 13.75C18.75 13.2527 18.9475 12.7758 19.2992 12.4242C19.6508 12.0725 20.1277 11.875 20.625 11.875C21.1223 11.875 21.5992 12.0725 21.9508 12.4242C22.3025 12.7758 22.5 13.2527 22.5 13.75Z" fill="#372948"/>
</svg>
