<svg width="290" height="102" viewBox="0 0 290 102" fill="none" xmlns="http://www.w3.org/2000/svg">
<g filter="url(#filter0_d_191_3802)">
<path d="M78.1823 52.656C78.1823 50 78.7263 47.648 79.8143 45.6C80.9343 43.552 82.4383 41.968 84.3263 40.848C86.2463 39.696 88.3583 39.12 90.6623 39.12C92.7423 39.12 94.5503 39.536 96.0863 40.368C97.6543 41.168 98.9023 42.176 99.8303 43.392V39.552H105.35V66H99.8303V62.064C98.9023 63.312 97.6383 64.352 96.0383 65.184C94.4383 66.016 92.6143 66.432 90.5663 66.432C88.2943 66.432 86.2143 65.856 84.3263 64.704C82.4383 63.52 80.9343 61.888 79.8143 59.808C78.7263 57.696 78.1823 55.312 78.1823 52.656ZM99.8303 52.752C99.8303 50.928 99.4463 49.344 98.6783 48C97.9423 46.656 96.9663 45.632 95.7503 44.928C94.5343 44.224 93.2223 43.872 91.8143 43.872C90.4063 43.872 89.0943 44.224 87.8783 44.928C86.6623 45.6 85.6703 46.608 84.9023 47.952C84.1663 49.264 83.7983 50.832 83.7983 52.656C83.7983 54.48 84.1663 56.08 84.9023 57.456C85.6703 58.832 86.6623 59.888 87.8783 60.624C89.1263 61.328 90.4383 61.68 91.8143 61.68C93.2223 61.68 94.5343 61.328 95.7503 60.624C96.9663 59.92 97.9423 58.896 98.6783 57.552C99.4463 56.176 99.8303 54.576 99.8303 52.752ZM144.554 39.12C146.634 39.12 148.49 39.552 150.122 40.416C151.786 41.28 153.082 42.56 154.01 44.256C154.97 45.952 155.45 48 155.45 50.4V66H150.026V51.216C150.026 48.848 149.434 47.04 148.25 45.792C147.066 44.512 145.45 43.872 143.402 43.872C141.354 43.872 139.722 44.512 138.506 45.792C137.322 47.04 136.73 48.848 136.73 51.216V66H131.306V51.216C131.306 48.848 130.714 47.04 129.53 45.792C128.346 44.512 126.73 43.872 124.682 43.872C122.634 43.872 121.002 44.512 119.786 45.792C118.602 47.04 118.01 48.848 118.01 51.216V66H112.538V39.552H118.01V42.576C118.906 41.488 120.042 40.64 121.418 40.032C122.794 39.424 124.266 39.12 125.834 39.12C127.946 39.12 129.834 39.568 131.498 40.464C133.162 41.36 134.442 42.656 135.338 44.352C136.138 42.752 137.386 41.488 139.082 40.56C140.778 39.6 142.602 39.12 144.554 39.12ZM186.653 52.128C186.653 53.12 186.589 54.016 186.461 54.816H166.253C166.413 56.928 167.197 58.624 168.605 59.904C170.013 61.184 171.741 61.824 173.789 61.824C176.733 61.824 178.813 60.592 180.029 58.128H185.932C185.133 60.56 183.677 62.56 181.565 64.128C179.485 65.664 176.893 66.432 173.789 66.432C171.261 66.432 168.989 65.872 166.973 64.752C164.989 63.6 163.421 62 162.269 59.952C161.149 57.872 160.589 55.472 160.589 52.752C160.589 50.032 161.133 47.648 162.221 45.6C163.341 43.52 164.893 41.92 166.877 40.8C168.893 39.68 171.197 39.12 173.789 39.12C176.285 39.12 178.509 39.664 180.461 40.752C182.413 41.84 183.933 43.376 185.021 45.36C186.109 47.312 186.653 49.568 186.653 52.128ZM180.941 50.4C180.909 48.384 180.189 46.768 178.781 45.552C177.373 44.336 175.629 43.728 173.549 43.728C171.661 43.728 170.045 44.336 168.701 45.552C167.357 46.736 166.557 48.352 166.301 50.4H180.941ZM212.15 59.184H198.182L195.782 66H190.07L202.022 32.592H208.358L220.31 66H214.55L212.15 59.184ZM210.614 54.72L205.19 39.216L199.718 54.72H210.614ZM230.978 43.44C231.906 42.224 233.17 41.2 234.77 40.368C236.37 39.536 238.178 39.12 240.194 39.12C242.498 39.12 244.594 39.696 246.482 40.848C248.402 41.968 249.906 43.552 250.994 45.6C252.082 47.648 252.626 50 252.626 52.656C252.626 55.312 252.082 57.696 250.994 59.808C249.906 61.888 248.402 63.52 246.482 64.704C244.594 65.856 242.498 66.432 240.194 66.432C238.178 66.432 236.386 66.032 234.818 65.232C233.25 64.4 231.97 63.376 230.978 62.16V78.576H225.506V39.552H230.978V43.44ZM247.058 52.656C247.058 50.832 246.674 49.264 245.906 47.952C245.17 46.608 244.178 45.6 242.93 44.928C241.714 44.224 240.402 43.872 238.994 43.872C237.618 43.872 236.306 44.224 235.058 44.928C233.842 45.632 232.85 46.656 232.082 48C231.346 49.344 230.978 50.928 230.978 52.752C230.978 54.576 231.346 56.176 232.082 57.552C232.85 58.896 233.842 59.92 235.058 60.624C236.306 61.328 237.618 61.68 238.994 61.68C240.402 61.68 241.714 61.328 242.93 60.624C244.178 59.888 245.17 58.832 245.906 57.456C246.674 56.08 247.058 54.48 247.058 52.656ZM263.51 43.44C264.438 42.224 265.702 41.2 267.302 40.368C268.902 39.536 270.71 39.12 272.726 39.12C275.03 39.12 277.126 39.696 279.014 40.848C280.934 41.968 282.438 43.552 283.526 45.6C284.614 47.648 285.158 50 285.158 52.656C285.158 55.312 284.614 57.696 283.526 59.808C282.438 61.888 280.934 63.52 279.014 64.704C277.126 65.856 275.03 66.432 272.726 66.432C270.71 66.432 268.918 66.032 267.35 65.232C265.782 64.4 264.502 63.376 263.51 62.16V78.576H258.038V39.552H263.51V43.44ZM279.59 52.656C279.59 50.832 279.206 49.264 278.438 47.952C277.702 46.608 276.71 45.6 275.462 44.928C274.246 44.224 272.934 43.872 271.526 43.872C270.15 43.872 268.838 44.224 267.59 44.928C266.374 45.632 265.382 46.656 264.614 48C263.878 49.344 263.51 50.928 263.51 52.752C263.51 54.576 263.878 56.176 264.614 57.552C265.382 58.896 266.374 59.92 267.59 60.624C268.838 61.328 270.15 61.68 271.526 61.68C272.934 61.68 274.246 61.328 275.462 60.624C276.71 59.888 277.702 58.832 278.438 57.456C279.206 56.08 279.59 54.48 279.59 52.656Z" fill="url(#paint0_linear_191_3802)"/>
</g>
<g clip-path="url(#clip0_191_3802)">
<path d="M76.8236 53.387L76.8708 52.8255C76.8934 52.6696 76.8905 52.5129 76.8992 52.355C76.936 51.6556 76.942 50.9602 76.9171 50.2689C76.9194 50.704 76.9186 51.1415 76.9042 51.5742C76.9198 51.1332 76.9186 50.6897 76.9147 50.2458L76.898 50.2434C76.8925 49.1842 76.7679 48.129 76.5265 47.0977L76.5437 47.0774C76.6627 47.5571 76.7488 48.0443 76.8014 48.5357C76.6781 47.3078 76.4649 46.0906 76.1636 44.8939L76.1241 44.7347C75.8954 43.8438 75.6184 42.966 75.2942 42.1052C75.1581 41.7369 75.0102 41.3716 74.8504 41.0093C74.554 40.3223 74.2279 39.6498 73.8722 38.9921C73.4701 38.2499 73.0335 37.5293 72.5626 36.8302L72.3928 36.5897L72.3952 36.573C71.4242 35.1693 70.3153 33.8663 69.085 32.6835L68.9896 32.6157C68.7115 32.3518 68.4277 32.0938 68.1383 31.8416C65.969 29.9599 63.4952 28.461 60.823 27.4091C60.7744 27.4703 60.7281 27.5347 60.6771 27.5926L60.823 27.4091C59.9154 27.0514 58.988 26.7463 58.0453 26.4954C57.0782 26.2368 56.0969 26.035 55.1063 25.8908C54.249 25.7667 53.3957 25.6867 52.5464 25.6509C53.0048 25.7826 53.4607 25.9311 53.9108 26.0417L53.9087 26.0556C53.4496 25.9294 53.0036 25.791 52.5464 25.6509C48.0836 25.4593 43.6492 26.4472 39.6898 28.5151C35.7304 30.583 32.3859 33.6579 29.9932 37.4299C30.1097 37.4488 30.2288 37.4415 30.3422 37.4088C30.4555 37.3761 30.5602 37.3187 30.6487 37.2407C30.7507 37.3208 30.848 37.4145 30.9481 37.5085L30.9448 37.5308C30.84 37.4502 30.738 37.3502 30.6355 37.253C30.5478 37.3295 30.4445 37.3862 30.3328 37.4191C30.2211 37.4519 30.1036 37.4603 29.9884 37.4435C29.094 38.8505 28.3411 40.3426 27.7406 41.898C26.2789 45.6879 25.7402 49.7714 26.1692 53.8107C26.4559 56.4904 27.1688 59.1072 28.2808 61.5621C29.1479 63.4783 30.2481 65.2803 31.5564 66.9271C31.7644 67.159 31.9724 67.3909 32.174 67.6276C32.3756 67.8642 32.6379 67.7999 32.8877 67.7821C32.6335 67.8106 32.3223 67.8991 32.1629 67.626C32.0172 67.4542 31.8636 67.2984 31.7168 67.1152C33.8834 69.7874 36.57 71.9921 39.6137 73.5956C39.8532 73.7212 40.0941 73.8432 40.3365 73.9617C40.8163 74.1941 41.3056 74.4127 41.8045 74.6176C42.3035 74.8224 42.8248 75.0163 43.3686 75.1993C43.8914 74.8856 44.404 74.545 44.9292 74.2345C44.3398 74.0658 43.7527 73.8813 43.1678 73.6811C42.893 73.8715 42.5892 74.0264 42.283 74.1981C42.5701 74.0407 42.8791 73.8695 43.171 73.6787C42.7453 73.5176 42.3248 73.3402 41.9016 73.1624C41.5424 73.0086 41.1868 72.8462 40.8353 72.6755C39.1953 71.8781 37.6508 70.8975 36.2314 69.7525L36.2147 69.7501C34.932 68.6986 33.7563 67.5232 32.7045 66.2408C32.5542 66.3953 32.4127 66.568 32.262 66.7252C32.4186 66.566 32.561 66.3877 32.7156 66.2225C31.3477 64.5174 30.2102 62.6395 29.3326 60.6373C29.3279 60.6442 29.3231 60.6511 29.3183 60.658C27.8387 57.2533 27.1807 53.5483 27.3974 49.8423C27.5789 46.5927 28.3854 43.4086 29.7727 40.4643C30.5738 38.9165 31.52 37.4483 32.5986 36.0794C32.5317 36.0289 32.4674 35.975 32.406 35.9179C32.093 36.117 31.7511 36.2806 31.4269 36.4781C31.7407 36.2734 32.0938 36.1114 32.4216 35.9088C32.4885 35.9593 32.5528 36.0131 32.6142 36.0703C33.799 34.5782 35.1688 33.2429 36.6907 32.0965C37.8071 31.1985 39.0151 30.4209 40.2947 29.7765C42.5578 28.6077 44.9904 27.8016 47.5037 27.3874L47.5406 27.407C49.1424 27.1214 50.7714 27.0178 52.3965 27.0984L52.1133 26.8755L52.1356 26.8788L52.3902 27.0833C53.7326 27.0958 55.0473 27.4169 56.3707 27.5602C57.5121 27.8371 58.6389 28.171 59.7469 28.5606C62.6999 29.6577 65.4075 31.3264 67.7148 33.4712L67.6981 33.4688C69.0369 34.6992 70.2292 36.08 71.2513 37.5839C71.3629 37.5005 71.4911 37.4196 71.6026 37.3363C71.7743 37.0285 72.0231 36.7707 72.3248 36.5883L72.3228 36.6023C72.0197 36.7821 71.7711 37.0407 71.6034 37.3507C71.4919 37.434 71.3661 37.4982 71.2521 37.5982C72.1293 38.8934 72.8816 40.2688 73.4992 41.706C74.1814 43.3329 74.6933 45.026 75.0269 46.7583C75.1155 47.1861 75.1705 47.5919 75.2257 48.0148C75.415 47.9571 75.5949 47.8721 75.7596 47.7624C75.5901 47.8832 75.4039 47.9788 75.207 48.0462C75.2976 48.9119 75.352 49.7922 75.3746 50.6764C75.3774 51.1088 75.3845 51.5304 75.4028 51.9735C75.3126 53.1654 75.1751 54.3504 74.9704 55.5286C74.935 55.7735 74.8856 55.9966 74.8502 56.2415C74.8986 56.4759 74.9443 56.7098 75.0095 56.9466C74.9618 56.7127 74.9004 56.4817 74.8255 56.255C74.5731 57.3648 74.2489 58.4569 73.8547 59.5246C73.2986 61.022 72.5925 62.4594 71.7473 63.8147L71.7612 63.8167C69.2361 67.8604 65.5678 71.0638 61.2209 73.0213C61.2132 73.2095 61.1805 73.3959 61.1236 73.5756C60.7941 73.6976 60.4484 73.7701 60.0978 73.7908L60.1235 73.8485L60.0835 73.7717C60.4342 73.751 60.7799 73.6785 61.1093 73.5564C61.1662 73.3768 61.1989 73.1904 61.2066 73.0022C59.2396 73.8841 57.1636 74.4991 55.0336 74.8308C53.424 75.0842 51.7925 75.1708 50.1651 75.0893C48.9986 75.0308 47.8376 74.8902 46.6908 74.6686C46.0865 74.5502 45.4871 74.4084 44.8938 74.2436C44.3685 74.554 43.8532 74.8943 43.3332 75.2083C44.112 75.4689 44.9085 75.6922 45.7227 75.8783C46.3957 76.0326 47.0792 76.16 47.7732 76.2605L48.3299 76.3411C52.2304 76.827 56.1905 76.3972 59.896 75.0859C59.7681 74.862 59.6352 74.6409 59.4976 74.4229C59.7635 74.3739 60.0215 74.2889 60.2645 74.1702L60.2372 74.1037L60.2788 74.1893C60.0372 74.3114 59.7787 74.3965 59.5118 74.442C59.6359 74.6447 59.7716 74.8661 59.896 75.0859C65.7024 73.0299 70.5729 68.9452 73.6052 63.5836C73.6822 63.4441 73.7624 63.3023 73.8371 63.1596L73.8642 63.1095L73.9469 62.951C74.1789 62.5129 74.3973 62.0708 74.6021 61.625C74.9176 60.9176 75.1982 60.1966 75.4617 59.476L75.4921 59.3837L75.4941 59.3698C75.66 58.8918 75.8102 58.4105 75.9447 57.9261L75.9419 57.9455C76.2319 56.8989 76.4552 55.8349 76.6106 54.7601C76.7107 54.2914 76.7817 53.8338 76.8236 53.387Z" fill="url(#paint1_linear_191_3802)"/>
<path d="M52.4121 27.0694C53.7545 27.0819 55.0692 27.403 56.3926 27.5463C57.5312 27.8277 58.6598 28.1588 59.7823 28.5515C62.7407 29.6502 65.4528 31.3225 67.7629 33.4725C69.098 34.7065 70.2899 36.0869 71.3162 37.5876C72.182 38.8896 72.9338 40.264 73.5632 41.6954C74.2574 43.3198 74.7743 45.0144 75.1048 46.7497C75.1792 47.1584 75.2484 47.5833 75.3037 48.0062C75.3943 48.8719 75.4487 49.7522 75.4713 50.6364C75.4741 51.0688 75.4812 51.4904 75.4995 51.9335C75.4085 53.131 75.2702 54.3216 75.0647 55.5053C75.015 55.7311 74.9799 55.9733 74.9445 56.2182C74.6921 57.328 74.3679 58.4202 73.9737 59.4879C73.4186 61.0039 72.7099 62.4591 71.8586 63.8308C69.3252 67.8691 65.6591 71.0723 61.3175 73.041C59.3491 73.9191 57.2736 74.5339 55.1445 74.8696C53.5341 75.1149 51.9034 75.2015 50.276 75.1281C49.1102 75.0614 47.9497 74.9209 46.8017 74.7074C46.1886 74.5845 45.5942 74.4502 45.0047 74.2824C44.4151 74.1146 43.828 73.9301 43.2433 73.729C42.8176 73.5679 42.3971 73.3905 41.9739 73.2127C41.6146 73.0588 41.2591 72.8965 40.9076 72.7258C39.2675 71.9284 37.723 70.9478 36.3037 69.8027C35.0013 68.7358 33.8061 67.5443 32.7351 66.2453C31.3707 64.5337 30.2379 62.6498 29.366 60.6421C28.3048 58.1862 27.6626 55.5698 27.466 52.9015C27.3925 51.8791 27.3863 50.8529 27.4475 49.8297C27.642 46.586 28.4511 43.4088 29.8319 40.4672C30.636 38.9212 31.5821 37.4532 32.6579 36.0823C33.8402 34.5879 35.2103 33.2523 36.7344 32.1085C37.8544 31.2156 39.0619 30.4383 40.3384 29.7886C42.6162 28.6039 45.07 27.7943 47.6055 27.3908C49.1904 27.0977 50.8044 26.9919 52.414 27.0754M37.5777 32.7024C33.7652 35.4985 30.9707 39.4637 29.6196 43.9945C29.4306 44.3612 29.3264 44.7656 29.3147 45.178L29.3026 45.0256C28.9049 46.5115 28.6837 48.039 28.6437 49.5766L28.6769 49.4649C28.5311 51.1058 28.6101 52.7589 28.9118 54.3783C28.8917 54.5932 28.888 54.8092 28.9006 55.0247C29.4838 58.5677 30.9041 61.9204 33.0433 64.8042C35.1825 67.6881 37.9791 70.0199 41.2005 71.6059C44.4846 73.23 48.104 74.0607 51.7677 74.0311C57.2143 73.9922 62.4697 72.0185 66.5955 68.4626C70.1279 65.4146 72.5979 61.321 73.6475 56.775C73.9361 55.4344 74.1115 54.0719 74.1719 52.7018C74.2367 52.1038 74.2516 51.5014 74.2167 50.9009C74.1974 50.7987 74.1807 50.5803 74.1614 50.478L74.2114 50.5847C74.2183 50.3015 74.2279 50.0187 74.2181 49.7331L63.833 48.2294C63.5874 48.186 63.335 48.201 63.0963 48.2734C59.6264 49.3141 56.1351 50.2863 52.6726 51.3934C52.44 51.4256 52.2104 51.476 51.9858 51.544C52.2444 51.8376 52.5201 52.1157 52.8115 52.3769L52.0299 52.6133C52.6428 53.3786 53.3852 54.0305 54.2234 54.5394C56.5094 55.9826 59.1655 56.7306 61.8688 56.6922C62.5318 56.7058 63.18 56.5666 63.8362 56.6275C62.8854 58.4912 61.5227 60.1141 59.8515 61.3728C58.1802 62.6316 56.2443 63.4934 54.1905 63.8927C50.5139 64.6025 46.7058 63.8243 43.6026 61.7288C40.954 59.9349 39.0155 57.2718 38.1224 54.2001C37.5828 52.2965 37.4753 50.2964 37.8077 48.3459L37.9339 48.5148C38.3928 46.6836 39.2256 44.9672 40.3799 43.4735C41.5342 41.9798 42.9851 40.741 44.6413 39.8351C46.2686 38.9432 48.057 38.3838 49.9025 38.1895C51.7479 37.9951 53.6136 38.1698 55.391 38.7032C58.1627 39.5212 60.6057 41.1926 62.3724 43.4795C63.0801 44.296 64.0531 44.8365 65.1202 45.0061C66.1873 45.1757 67.28 44.9634 68.206 44.4066C68.8217 44.0327 69.3377 43.5154 69.7101 42.8987C70.0824 42.2821 70.3 41.5845 70.3442 40.8655C70.2129 41.018 70.0902 41.1776 69.9766 41.3437C70.1458 41.0523 70.2544 40.7297 70.2958 40.3953C70.4856 39.2991 70.2586 38.1714 69.6594 37.234C66.5082 33.1142 62.0516 30.1865 57.0192 28.9301C56.5831 28.7951 56.1335 28.708 55.6785 28.6706C54.9542 28.4911 54.2139 28.3839 53.4684 28.3506C47.8168 27.7612 42.1498 29.3148 37.5888 32.704M53.7437 43.4265C53.6585 44.2521 53.7959 45.0855 54.1416 45.84C54.2149 46.2839 54.3998 46.7019 54.6791 47.0546C54.8161 47.1797 54.9803 47.271 55.1588 47.3215C55.3373 47.3719 55.5251 47.38 55.7073 47.3452C55.8895 47.3103 56.061 47.2334 56.2083 47.1206C56.3555 47.0078 56.4744 46.8622 56.5555 46.6954C56.6765 46.3844 56.6726 46.0387 56.5446 45.7305C56.8306 44.8937 56.3644 44.1101 56.1825 43.3051C56.0182 42.7129 55.814 41.9246 55.1067 41.8051C54.8937 41.7592 54.6723 41.7722 54.4662 41.8427C54.26 41.9132 54.0771 42.0386 53.9369 42.2054C53.7967 42.3721 53.7046 42.5739 53.6706 42.7891C53.6366 43.0043 53.6618 43.2247 53.7437 43.4265Z" fill="#AEE2FF"/>
<path d="M37.5777 32.7024C42.136 29.3055 47.8031 27.7429 53.4582 28.3235C54.1491 28.6392 54.9161 28.7503 55.6682 28.6435C56.1279 28.6838 56.5817 28.7743 57.0217 28.9134C62.0455 30.1698 66.4951 33.0921 69.644 37.2033C70.2432 38.1408 70.4701 39.2684 70.2803 40.3647C70.2465 40.7008 70.1374 41.0249 69.9611 41.3131C69.5102 42.2575 68.7571 43.0245 67.8211 43.4927C66.9083 43.9418 65.8712 44.0718 64.8758 43.8617C63.8804 43.6516 62.9842 43.1137 62.3308 42.3339C60.7041 40.2607 58.5192 38.6951 56.033 37.8215C52.7149 36.6372 49.0718 36.7502 45.8334 38.1378C44.04 38.8966 42.4307 40.0322 41.1148 41.4676C39.7988 42.903 38.8069 44.6045 38.2063 46.4569C37.8562 46.2729 37.503 46.0948 37.1469 45.9227C34.8023 44.852 32.5165 43.6568 30.2993 42.3423C30.1631 42.9298 29.9302 43.4905 29.61 44.0016C30.9701 39.4707 33.7666 35.5049 37.5777 32.7024ZM52.6627 51.3636C56.1085 50.254 59.5998 49.2818 63.0864 48.2435C66.6698 48.8135 70.2921 49.2528 73.8707 49.8562C73.9566 50.0676 74.078 50.2499 74.1464 50.4645C74.1657 50.5667 74.1823 50.7851 74.2016 50.8874C74.2209 50.9896 74.1475 51.1438 74.1354 51.2273C73.148 51.2554 72.1637 51.3512 71.1895 51.5141C67.2486 51.9547 63.2733 51.996 59.324 51.6375C57.8473 51.551 56.3764 51.3827 54.9183 51.1332C54.1609 51.1386 53.4056 51.2157 52.6627 51.3636Z" fill="#372948"/>
<path d="M45.8322 38.1461C48.6591 36.9387 51.8048 36.6952 54.7838 37.4532C57.7628 38.2112 60.4096 39.9286 62.3157 42.3403C62.9667 43.1233 63.863 43.6638 64.8594 43.8741C65.8558 44.0844 66.894 43.9522 67.806 43.499C68.742 43.0308 69.4951 42.2638 69.946 41.3194C70.057 41.1515 70.1799 40.9917 70.3136 40.8412C70.273 41.5611 70.0569 42.2601 69.6842 42.8773C69.3115 43.4945 68.7935 44.0111 68.1754 44.3823C67.2505 44.943 66.1568 45.1575 65.0887 44.9878C64.0206 44.818 63.0472 44.275 62.3418 43.4552C60.5729 41.1706 58.1307 39.4998 55.3604 38.6789C53.5832 38.1444 51.7174 37.9692 49.8717 38.1635C48.0261 38.3578 46.2376 38.9178 44.6107 39.8108C42.9584 40.7179 41.5108 41.956 40.3585 43.4477C39.2061 44.9394 38.3737 46.6526 37.9133 48.4805L37.7871 48.3116C37.8616 47.6833 38.0017 47.0645 38.2051 46.4653C38.8008 44.6104 39.791 42.9064 41.1075 41.4704C42.4241 40.0344 44.0359 38.9003 45.8322 38.1461ZM74.1552 52.6994C74.103 54.0701 73.9275 55.4333 73.6308 56.7726C72.5884 61.3215 70.1172 65.4172 66.5788 68.4601C62.4567 72.0223 57.1989 73.9969 51.751 74.0287C48.0873 74.0589 44.4677 73.2282 41.1838 71.6034C37.9646 70.0149 35.1701 67.6824 33.0316 64.799C30.8932 61.9156 29.4723 58.5644 28.8867 55.0226C28.882 54.8071 28.8858 54.5915 28.8979 54.3763C29.1439 55.3071 29.3378 56.2645 29.6526 57.191C30.5763 60.0376 32.0634 62.6691 34.0255 64.9288C37.3471 68.7826 41.8576 71.4204 46.845 72.426C47.3778 72.5344 47.9145 72.6349 48.4517 72.7126C49.0613 72.8009 49.6583 72.839 50.2644 72.8728C54.3088 73.1106 58.3436 72.2686 61.9553 70.4329C65.567 68.5973 68.6255 65.8341 70.8172 62.4268C72.6679 59.4793 73.8096 56.1426 74.1525 52.6791" fill="#28663A"/>
<path d="M53.7437 43.4265C53.6599 43.2236 53.6335 43.0016 53.6673 42.7847C53.7012 42.5678 53.7939 42.3643 53.9355 42.1965C54.0771 42.0288 54.2621 41.9031 54.4703 41.8333C54.6784 41.7635 54.9017 41.7523 55.1158 41.8008C55.8288 41.9211 56.0484 42.7003 56.1917 43.3007C56.3755 44.0918 56.8569 44.889 56.5538 45.7261C56.4373 45.89 56.2836 46.0239 56.1053 46.1169C55.9271 46.2098 55.7293 46.2592 55.5282 46.2608C55.3271 46.2625 55.1286 46.2165 54.9487 46.1265C54.7689 46.0365 54.613 45.9052 54.4938 45.7433C54.1985 44.9864 53.948 44.2129 53.7437 43.4265Z" fill="#AEE2FF"/>
<path d="M29.6029 43.9921C29.7731 43.3858 29.967 42.8512 30.1849 42.2689C32.434 43.6114 34.7558 44.828 37.1398 45.9132C37.4962 46.0813 37.853 46.2665 38.1991 46.4474C37.9964 47.0467 37.8563 47.6655 37.7812 48.2937C37.4407 50.2437 37.5483 52.2457 38.0958 54.148C38.989 57.2197 40.9274 59.8827 43.576 61.6766C45.111 62.7177 46.8367 63.4449 48.6538 63.8163C50.4709 64.1877 52.3436 64.1959 54.1639 63.8406C56.2174 63.4398 58.153 62.5779 59.8248 61.32C61.4965 60.0621 62.8608 58.441 63.8148 56.5789C64.0199 56.1735 64.2017 55.7567 64.3593 55.3306C62.3275 55.7189 60.2348 55.6509 58.2326 55.1315C56.2303 54.612 54.3685 53.6542 52.7818 52.3271C52.4904 52.066 52.2147 51.7878 51.956 51.4943C52.1807 51.4262 52.4103 51.3759 52.6428 51.3436C53.3802 51.1937 54.1309 51.1187 54.8834 51.1196C56.3414 51.3693 57.8123 51.5377 59.2891 51.6239C63.2386 51.9743 67.2131 51.933 71.1545 51.5005C72.1266 51.3218 73.1121 51.2259 74.1004 51.2137C74.1121 51.133 74.1546 50.9573 74.1667 50.8738C74.2016 51.4743 74.1866 52.0767 74.1219 52.6747C73.7113 56.9283 72.0865 60.9741 69.4411 64.3302C66.7956 67.6862 63.2411 70.2109 59.201 71.6035C56.3234 72.6177 53.2718 73.0455 50.2262 72.8616C49.6201 72.832 49.0155 72.7786 48.4136 72.7014C47.8597 72.6014 47.3308 72.5447 46.8068 72.4148C41.8194 71.4092 37.309 68.7714 33.9873 64.9176C32.0253 62.6579 30.5381 60.0264 29.6144 57.1798C29.3159 56.2585 29.1061 55.313 28.8597 54.3651C28.5418 52.7512 28.446 51.1014 28.5751 49.4615C28.6519 48.5716 28.7473 47.6835 28.8613 46.7976" fill="#B799FF"/>
<path d="M52.802 52.3443C54.3888 53.6713 56.2506 54.6292 58.2528 55.1486C60.2551 55.6681 62.3478 55.7361 64.3795 55.3478C64.2017 55.771 64.0243 56.1915 63.835 56.5961C63.1789 56.5352 62.5311 56.6716 61.8676 56.6607C59.1646 56.698 56.5087 55.9502 54.2222 54.5079C53.3841 53.9991 52.6416 53.3472 52.0287 52.5818L52.8104 52.3455" fill="#28653A"/>
<path d="M118.322 77.2549L117.847 75.1889C116.956 77.145 115.315 78.398 112.924 78.9479C110.325 79.5457 108.235 79.2603 106.653 78.0919C105.524 77.2296 104.783 76.0318 104.431 74.4985C103.211 69.1969 106.5 65.6495 114.296 63.8564L114.881 63.7219L114.72 63.0202C114.134 60.4734 112.659 59.4719 110.294 60.0158C108.163 60.506 106.186 61.5489 104.364 63.1445L103.485 59.3243C105.227 57.8565 107.294 56.8476 109.685 56.2977C112.18 55.7239 114.133 55.8902 115.546 56.7967C117.06 57.7892 118.125 59.6238 118.741 62.3006L120.83 71.3834C121.38 73.7743 121.843 75.4326 122.22 76.3583L118.322 77.2549ZM115.715 67.3472L114.896 67.5355C112.869 68.0017 111.352 68.5423 110.344 69.1572C108.734 70.1294 108.124 71.4601 108.512 73.1493C108.943 75.0205 110.236 75.708 112.393 75.2119C115.642 74.4647 116.812 72.116 115.903 68.1658L115.715 67.3472ZM156.867 68.1845L152.812 69.1169L149.656 55.3952C149.023 52.6404 147.485 51.544 145.042 52.1059C143.846 52.3808 142.972 53.1017 142.42 54.2686C141.747 55.6273 141.65 57.3461 142.128 59.4252L144.782 70.9639L140.689 71.9053L137.533 58.1836C136.899 55.4288 135.361 54.3324 132.918 54.8943C131.697 55.1752 130.833 55.8801 130.326 57.0091C129.68 58.3617 129.599 60.0906 130.083 62.1956L132.737 73.7344L128.605 74.6848L124.991 58.9749C124.716 57.7795 124.464 56.7429 124.235 55.8653C124.006 54.9877 123.796 54.256 123.607 53.6702L127.661 52.7378L128.1 54.6479C128.905 52.7936 130.555 51.5796 133.05 51.0058C134.116 50.7607 135.253 50.8275 136.462 51.2062C137.709 51.6308 138.67 52.2991 139.345 53.211C140.268 50.5633 142.172 48.9078 145.057 48.2443C147.266 47.7362 149.133 48.0044 150.659 49.0489C152.084 50.0073 153.041 51.5521 153.531 53.6831L156.867 68.1845ZM177.764 53.8968L164.627 56.9183C165.135 58.7716 165.977 60.1103 167.151 60.9347C168.37 61.831 169.824 62.0849 171.513 61.6964C173.852 61.1584 175.802 60.1765 177.362 58.7505L178.267 62.6877C176.367 63.9455 174.352 64.8195 172.221 65.3097C168.869 66.0807 166.129 65.589 164.001 63.8346C162.136 62.2662 160.811 59.7798 160.028 56.3753C159.275 53.1008 159.455 50.2547 160.568 47.8371C161.681 45.4194 163.576 43.9027 166.253 43.287C169.242 42.5997 171.722 43.1511 173.693 44.9414C175.385 46.4677 176.574 48.7252 177.262 51.7138L177.764 53.8968ZM172.663 51.1708C172.328 49.7155 171.671 48.5807 170.69 47.7665C169.671 46.9063 168.525 46.6226 167.252 46.9155C165.952 47.2144 164.97 48.0012 164.306 49.2759C163.641 50.5506 163.464 51.8637 163.775 53.215L172.663 51.1708ZM198.36 46.7381L190.882 35.8164L188.888 48.9168L198.36 46.7381ZM210.04 56.1187L205.518 57.1588L200.843 50.3946L188.213 53.2995L186.924 61.4355L182.441 62.4666L187.603 30.6602L191.852 29.6829L210.04 56.1187ZM219.355 59.8456L215.262 60.787L209.076 33.8893L213.169 32.9479L213.599 35.3527C213.673 35.1988 213.767 35.013 213.881 34.7952C213.989 34.5515 214.123 34.3017 214.283 34.046C215.164 32.6395 216.579 31.7121 218.528 31.2638C221.386 30.6063 223.804 31.0628 225.779 32.6333C227.537 34.0896 228.787 36.4291 229.528 39.6516C230.281 42.9261 230.164 45.6893 229.177 47.9412C228.142 50.3409 226.182 51.8725 223.297 52.536C220.984 53.068 219.01 52.6328 217.374 51.2305L219.355 59.8456ZM218.93 35.1527C217.318 35.5233 216.226 36.4859 215.654 38.0405C215.103 39.4532 215.055 41.1471 215.509 43.1222C215.951 45.0453 216.722 46.551 217.82 47.6391C219.047 48.8072 220.439 49.212 221.999 48.8534C225.377 48.0763 226.531 45.3619 225.461 40.71C224.433 36.24 222.256 34.3876 218.93 35.1527ZM242.996 54.4082L238.903 55.3497L232.716 28.4519L236.809 27.5105L237.239 29.9153C237.313 29.7615 237.408 29.5757 237.522 29.3579C237.63 29.1141 237.764 28.8644 237.924 28.6086C238.804 27.2022 240.219 26.2748 242.168 25.8265C245.027 25.169 247.444 25.6255 249.42 27.1959C251.178 28.6523 252.427 30.9918 253.168 34.2143C253.921 37.4888 253.804 40.252 252.817 42.5039C251.782 44.9036 249.822 46.4352 246.938 47.0987C244.625 47.6307 242.65 47.1955 241.014 45.7932L242.996 54.4082ZM242.57 29.7153C240.959 30.0859 239.867 31.0485 239.294 32.6032C238.743 34.0159 238.695 35.7098 239.15 37.6849C239.592 39.608 240.362 41.1136 241.461 42.2017C242.687 43.3699 244.08 43.7747 245.639 43.416C249.018 42.639 250.172 39.9245 249.102 35.2727C248.074 30.8027 245.897 28.9503 242.57 29.7153Z" fill="black"/>
</g>
<defs>
<filter id="filter0_d_191_3802" x="74.1823" y="32.592" width="214.975" height="53.984" filterUnits="userSpaceOnUse" color-interpolation-filters="sRGB">
<feFlood flood-opacity="0" result="BackgroundImageFix"/>
<feColorMatrix in="SourceAlpha" type="matrix" values="0 0 0 0 0 0 0 0 0 0 0 0 0 0 0 0 0 0 127 0" result="hardAlpha"/>
<feOffset dy="4"/>
<feGaussianBlur stdDeviation="2"/>
<feComposite in2="hardAlpha" operator="out"/>
<feColorMatrix type="matrix" values="0 0 0 0 0 0 0 0 0 0 0 0 0 0 0 0 0 0 0.25 0"/>
<feBlend mode="normal" in2="BackgroundImageFix" result="effect1_dropShadow_191_3802"/>
<feBlend mode="normal" in="SourceGraphic" in2="effect1_dropShadow_191_3802" result="shape"/>
</filter>
<linearGradient id="paint0_linear_191_3802" x1="39" y1="49" x2="287" y2="49" gradientUnits="userSpaceOnUse">
<stop stop-color="#372948"/>
<stop offset="0.08" stop-color="#3D2E50"/>
<stop offset="0.565" stop-color="#3E2E51"/>
<stop offset="1" stop-color="#8563AE"/>
</linearGradient>
<linearGradient id="paint1_linear_191_3802" x1="60.9118" y1="74.7243" x2="42.0369" y2="27.4399" gradientUnits="userSpaceOnUse">
<stop stop-color="white"/>
<stop offset="1"/>
</linearGradient>
<clipPath id="clip0_191_3802">
<rect width="90" height="90" fill="white" transform="translate(12.8971) rotate(8.23889)"/>
</clipPath>
</defs>
</svg>
